<svg xmlns="http://www.w3.org/2000/svg" xmlns:xlink="http://www.w3.org/1999/xlink" width="500" zoomAndPan="magnify" viewBox="0 0 375 374.999991" height="500" preserveAspectRatio="xMidYMid meet" version="1.0"><defs><filter x="0%" y="0%" width="100%" height="100%" id="d6c12e8f71"><feColorMatrix values="0 0 0 0 1 0 0 0 0 1 0 0 0 0 1 0 0 0 1 0" color-interpolation-filters="sRGB"/></filter><g/><clipPath id="dea1a7434a"><path d="M 44.464844 38.132812 L 330.214844 38.132812 L 330.214844 323.882812 L 44.464844 323.882812 Z M 44.464844 38.132812 " clip-rule="nonzero"/></clipPath><clipPath id="fecf9ea94a"><path d="M 287 227 L 300.894531 227 L 300.894531 240 L 287 240 Z M 287 227 " clip-rule="nonzero"/></clipPath><clipPath id="b5c98a6ed1"><path d="M 64 207 L 300.894531 207 L 300.894531 256 L 64 256 Z M 64 207 " clip-rule="nonzero"/></clipPath><clipPath id="e0edb1d19b"><path d="M 289 239 L 300.894531 239 L 300.894531 243 L 289 243 Z M 289 239 " clip-rule="nonzero"/></clipPath><clipPath id="6082c9ae62"><path d="M 61.644531 198 L 70 198 L 70 207 L 61.644531 207 Z M 61.644531 198 " clip-rule="nonzero"/></clipPath><clipPath id="281a268c1f"><path d="M 61.644531 62 L 276 62 L 276 228 L 61.644531 228 Z M 61.644531 62 " clip-rule="nonzero"/></clipPath><mask id="a904777b11"><g filter="url(#d6c12e8f71)"><rect x="-37.5" width="450" fill="#000000" y="-37.499999" height="449.999989" fill-opacity="0.9"/></g></mask><clipPath id="4a5b880e97"><path d="M 0.160156 1.058594 L 238.71875 1.058594 L 238.71875 12.800781 L 0.160156 12.800781 Z M 0.160156 1.058594 " clip-rule="nonzero"/></clipPath><clipPath id="b2d513b4ca"><rect x="0" width="239" y="0" height="13"/></clipPath><clipPath id="63ebe05ca0"><path d="M 65.007812 299.347656 L 307 299.347656 L 307 311.347656 L 65.007812 311.347656 Z M 65.007812 299.347656 " clip-rule="nonzero"/></clipPath></defs><g clip-path="url(#dea1a7434a)"><path fill="#052844" d="M 187.496094 324.199219 C 108.652344 324.199219 44.464844 260.007812 44.464844 181.164062 C 44.464844 102.320312 108.652344 38.132812 187.496094 38.132812 C 266.34375 38.132812 330.53125 102.320312 330.53125 181.164062 C 330.53125 260.007812 266.34375 324.199219 187.496094 324.199219 Z M 187.496094 40.246094 C 109.78125 40.246094 46.578125 103.449219 46.578125 181.164062 C 46.578125 258.882812 109.78125 322.085938 187.496094 322.085938 C 265.214844 322.085938 328.417969 258.882812 328.417969 181.164062 C 328.417969 103.449219 265.214844 40.246094 187.496094 40.246094 Z M 187.496094 40.246094 " fill-opacity="1" fill-rule="nonzero"/></g><path stroke-linecap="round" transform="matrix(0.75, 0, 0, 0.75, 21.564082, 277.724279)" fill="none" stroke-linejoin="miter" d="M 0.497891 0.497837 L 122.836441 0.497837 " stroke="#052844" stroke-width="1" stroke-opacity="1" stroke-miterlimit="4"/><path fill="#052844" d="M 141.335938 190.882812 L 141.40625 191.257812 L 141.785156 191.300781 C 143.285156 191.460938 144.789062 191.652344 146.292969 191.847656 L 146.972656 191.933594 L 146.863281 191.25 C 146.683594 190.136719 146.53125 189.011719 146.386719 187.886719 C 146.082031 185.46875 145.753906 182.960938 145.070312 180.550781 L 144.964844 180.199219 L 143.703125 180.132812 C 142.828125 180.09375 141.960938 180.046875 141.09375 180.023438 L 140.53125 180.011719 L 140.570312 180.582031 C 140.667969 181.773438 140.714844 182.976562 140.757812 184.183594 C 140.835938 186.382812 140.917969 188.664062 141.335938 190.882812 " fill-opacity="1" fill-rule="nonzero"/><path fill="#052844" d="M 135.726562 190.320312 L 135.914062 190.6875 L 136.195312 190.714844 C 136.660156 190.753906 137.117188 190.808594 137.574219 190.867188 L 138.226562 190.9375 L 138.144531 190.289062 C 137.953125 188.664062 137.890625 186.996094 137.832031 185.378906 C 137.769531 183.742188 137.703125 182.046875 137.503906 180.382812 L 137.445312 179.933594 L 136.628906 179.933594 C 135.6875 179.917969 134.738281 179.886719 133.792969 179.859375 L 133.109375 179.84375 L 133.277344 180.503906 C 134.042969 183.402344 134.925781 186.824219 135.710938 190.136719 L 135.726562 190.320312 " fill-opacity="1" fill-rule="nonzero"/><path fill="#052844" d="M 173.210938 181.035156 L 173.234375 180.414062 C 173.304688 179.027344 173.515625 177.613281 173.707031 176.238281 L 173.875 175.082031 L 173.417969 174.976562 C 172.785156 174.824219 172.15625 174.671875 171.523438 174.519531 C 168.589844 173.796875 165.554688 173.058594 162.4375 172.960938 L 161.957031 172.953125 L 161.820312 174.300781 C 161.683594 175.628906 161.539062 177 161.480469 178.359375 L 161.464844 178.816406 L 161.921875 178.890625 C 165.933594 179.476562 169.425781 180.125 172.605469 180.890625 L 173.210938 181.035156 " fill-opacity="1" fill-rule="nonzero"/><path fill="#052844" d="M 201.910156 201.027344 L 201.96875 201.460938 L 202.417969 201.46875 C 205.21875 201.507812 208.21875 201.628906 212.121094 201.878906 L 212.660156 201.917969 L 212.667969 201.375 C 212.675781 200.046875 212.578125 198.761719 212.480469 197.6875 L 212.449219 197.285156 L 212.054688 197.21875 C 208.570312 196.640625 205.605469 196.65625 202.972656 197.203125 C 207.375 194.296875 215.734375 188.238281 226.035156 178.238281 C 226.667969 181.28125 227.117188 184.367188 227.398438 187.453125 C 227.816406 192.167969 227.816406 196.945312 227.398438 201.671875 C 227.34375 202.234375 227.761719 202.730469 228.332031 202.777344 C 228.355469 202.785156 228.386719 202.785156 228.417969 202.785156 C 228.523438 202.785156 228.621094 202.761719 228.707031 202.730469 L 228.707031 203.042969 L 229.199219 203.066406 C 230.300781 203.132812 231.414062 203.1875 232.515625 203.246094 L 233.320312 203.285156 L 233.199219 202.632812 C 233.175781 202.53125 233.167969 202.441406 233.175781 202.328125 C 233.191406 202.015625 233.230469 201.695312 233.269531 201.285156 C 233.222656 200.511719 233.078125 198.175781 231.230469 198.039062 C 231.160156 198.023438 231.09375 198.015625 231.023438 198 L 230.878906 197.960938 L 230.734375 198 C 230.285156 198.144531 229.9375 198.464844 229.640625 198.867188 C 229.839844 195.003906 229.785156 191.113281 229.441406 187.273438 C 229.125 183.675781 228.546875 180.085938 227.761719 176.550781 C 228.46875 175.851562 229.175781 175.136719 229.890625 174.40625 C 232.113281 172.132812 234.652344 169.433594 237.238281 166.621094 C 237.792969 166.726562 238.300781 166.800781 238.703125 166.800781 C 239.496094 166.800781 240.21875 166.339844 240.566406 165.617188 C 240.902344 164.902344 240.796875 164.042969 240.285156 163.433594 C 240.269531 163.410156 240.234375 163.386719 240.21875 163.363281 C 244.019531 159.160156 247.746094 154.941406 250.605469 151.609375 C 252.042969 149.9375 255.410156 146.019531 260.589844 141.632812 C 262.664062 139.890625 263.652344 139.34375 264.703125 138.773438 C 265.234375 138.484375 265.773438 138.179688 266.40625 137.769531 L 264.503906 194.65625 C 264.308594 194.730469 264.101562 194.777344 263.933594 194.90625 C 263.066406 195.542969 263.5 197.515625 264.734375 201.453125 C 264.878906 201.902344 265 202.289062 265.082031 202.578125 L 265.179688 202.929688 L 265.546875 202.949219 C 266.617188 203.003906 267.683594 203.058594 268.761719 203.125 L 269.210938 203.15625 L 269.300781 202.714844 C 269.660156 200.859375 269.859375 198.257812 268.703125 196.382812 C 268.269531 195.695312 267.433594 195.074219 266.558594 194.746094 L 268.519531 135.984375 C 268.535156 135.421875 268.09375 134.941406 267.523438 134.925781 C 267.417969 134.917969 267.324219 134.941406 267.226562 134.964844 C 267.210938 134.941406 267.210938 134.910156 267.195312 134.886719 C 267.1875 134.867188 267.164062 134.84375 267.152344 134.828125 C 267.152344 134.828125 267.152344 134.820312 267.152344 134.820312 C 267.144531 134.8125 267.144531 134.8125 267.136719 134.8125 C 266.6875 134.089844 265.597656 132.765625 264.109375 130.972656 C 263.523438 130.265625 263.007812 129.65625 262.777344 129.34375 C 262.429688 128.890625 261.902344 128.59375 261.332031 128.546875 C 260.761719 128.492188 260.191406 128.683594 259.765625 129.070312 C 259.03125 129.726562 258.308594 130.402344 257.609375 131.09375 C 257.046875 131.640625 256.824219 132.449219 257.066406 133.199219 C 257.3125 133.945312 257.933594 134.476562 258.703125 134.585938 C 259.136719 134.699219 260.367188 135.4375 261.28125 135.992188 C 260.429688 136.523438 259.402344 137.253906 257.941406 138.5 C 252.511719 143.09375 248.992188 147.183594 247.425781 149.007812 C 244.582031 152.316406 240.855469 156.542969 237.046875 160.734375 C 236.964844 160.679688 236.910156 160.636719 236.828125 160.574219 C 235.519531 159.585938 233.335938 157.929688 232.894531 157.359375 C 232.589844 156.839844 232.074219 156.476562 231.480469 156.371094 C 230.855469 156.253906 230.226562 156.445312 229.753906 156.863281 L 225.785156 160.40625 C 225.140625 160.96875 224.925781 161.875 225.222656 162.671875 C 225.527344 163.472656 226.289062 163.996094 227.148438 163.996094 C 227.9375 163.996094 230.5 164.765625 232.371094 165.320312 C 232.507812 165.363281 232.613281 165.394531 232.742188 165.425781 C 230.699219 167.625 228.726562 169.714844 226.949219 171.53125 C 215.035156 183.691406 205.300781 190.753906 200.554688 193.871094 C 197.277344 196.03125 193.863281 198.078125 190.425781 199.953125 C 190.03125 200.160156 189.773438 200.496094 189.597656 200.867188 C 189.523438 200.84375 189.445312 200.8125 189.371094 200.792969 L 187.371094 200.335938 L 188.921875 201.6875 C 189.097656 201.839844 189.25 202 189.410156 202.152344 C 189.453125 202.351562 189.5 202.554688 189.597656 202.738281 C 189.871094 203.238281 190.3125 203.574219 190.816406 203.71875 C 192.601562 206.167969 193.042969 209.96875 192.832031 212.8125 L 192.792969 213.335938 L 193.324219 213.367188 C 193.605469 213.375 193.886719 213.398438 194.160156 213.429688 L 194.433594 213.453125 L 194.609375 213.246094 C 194.777344 213.027344 195.042969 212.882812 195.378906 212.804688 C 196 212.675781 196.808594 212.234375 197.164062 210.8125 C 197.71875 208.5625 196.800781 204.738281 195.445312 203.621094 C 195.027344 203.285156 194.527344 202.957031 194 202.640625 C 196.617188 201.171875 199.210938 199.613281 201.742188 197.984375 C 201.757812 198.980469 201.773438 200.007812 201.910156 201.027344 " fill-opacity="1" fill-rule="nonzero"/><path fill="#052844" d="M 198.722656 216.578125 L 198.914062 216.8125 L 199.210938 216.765625 C 199.269531 216.757812 199.316406 216.738281 199.390625 216.738281 C 208.441406 216.449219 217.664062 216.988281 226.273438 217.609375 L 226.878906 217.648438 L 226.828125 217.046875 C 226.578125 214.007812 226.554688 210.660156 226.742188 206.507812 L 226.773438 206.007812 L 226.265625 205.976562 C 224.113281 205.832031 221.960938 205.671875 219.816406 205.511719 C 213.429688 205.027344 206.835938 204.539062 200.3125 204.539062 L 199.628906 204.539062 L 199.824219 205.195312 C 200.828125 208.609375 200.539062 213.0625 198.046875 214.957031 L 197.597656 215.292969 L 197.976562 215.710938 C 198.230469 215.992188 198.480469 216.289062 198.722656 216.578125 " fill-opacity="1" fill-rule="nonzero"/><path fill="#052844" d="M 96.832031 198.996094 L 96.738281 199.253906 C 96.269531 200.457031 95.8125 201.542969 95.324219 202.554688 L 95.027344 203.195312 L 95.722656 203.285156 C 108.34375 204.875 121.398438 206.304688 135.632812 207.671875 C 142.742188 208.34375 149.976562 209.117188 156.984375 209.855469 C 164.347656 210.644531 171.972656 211.445312 179.46875 212.152344 L 180.375 212.242188 L 179.972656 211.421875 C 178.96875 209.332031 178.269531 206.996094 178.070312 205.011719 L 178.027344 204.652344 L 177.675781 204.5625 C 166.253906 201.855469 153.28125 199.742188 136.84375 197.902344 C 120.699219 196.09375 108.441406 196.417969 97.105469 198.9375 L 96.832031 198.996094 " fill-opacity="1" fill-rule="nonzero"/><path fill="#052844" d="M 143.640625 237.9375 L 143.6875 238.285156 L 144.042969 238.363281 C 166.316406 243.425781 188.996094 244.878906 211.574219 244.878906 C 226.972656 244.878906 242.332031 244.195312 257.472656 243.53125 C 267.289062 243.105469 277.453125 242.652344 287.429688 242.40625 L 288.234375 242.382812 L 287.878906 241.65625 C 287.277344 240.453125 287.042969 239.152344 286.898438 238.148438 L 286.828125 237.640625 L 286.320312 237.714844 C 278.449219 238.789062 270.296875 239.367188 262.40625 239.9375 C 258.285156 240.234375 254.019531 240.542969 249.859375 240.910156 C 238.042969 241.972656 224.128906 242.992188 210.417969 242.4375 C 202.296875 242.125 194.0625 241.34375 186.101562 240.597656 C 181.578125 240.171875 176.898438 239.730469 172.285156 239.375 C 171.363281 239.304688 170.429688 239.25 169.507812 239.183594 C 165.867188 238.941406 162.09375 238.6875 158.453125 237.882812 C 157.738281 237.722656 157.023438 237.554688 156.308594 237.390625 C 152.300781 236.460938 148.140625 235.519531 143.921875 235.601562 L 143.359375 235.609375 L 143.421875 236.171875 C 143.488281 236.765625 143.558594 237.34375 143.640625 237.9375 " fill-opacity="1" fill-rule="nonzero"/><path fill="#052844" d="M 98.054688 195.757812 L 97.402344 197.390625 L 98.328125 197.203125 C 110.28125 194.792969 123.253906 194.65625 139.140625 196.761719 L 139.59375 196.820312 C 152.140625 198.480469 165.121094 200.199219 177.46875 203.042969 L 177.996094 203.164062 L 178.09375 202.625 C 178.191406 202.03125 178.328125 201.566406 178.511719 201.164062 L 178.792969 200.570312 L 178.148438 200.441406 C 165.007812 197.734375 150.8125 195.050781 136.007812 193.765625 C 122.328125 192.578125 110.039062 191.894531 98.285156 195.675781 L 98.054688 195.757812 " fill-opacity="1" fill-rule="nonzero"/><path fill="#052844" d="M 112.964844 189.445312 L 113.019531 189.925781 L 113.5 189.894531 C 114.546875 189.820312 115.605469 189.78125 116.667969 189.773438 L 117.316406 189.757812 L 117.15625 189.132812 C 116.777344 187.605469 116.667969 185.988281 116.546875 184.433594 C 116.433594 182.875 116.3125 181.257812 115.941406 179.683594 L 115.847656 179.28125 L 115.429688 179.289062 C 114.578125 179.296875 113.742188 179.332031 112.882812 179.371094 L 112.351562 179.394531 L 112.402344 179.933594 C 112.519531 181.308594 112.570312 182.71875 112.617188 184.085938 C 112.671875 185.84375 112.738281 187.660156 112.964844 189.445312 " fill-opacity="1" fill-rule="nonzero"/><g clip-path="url(#fecf9ea94a)"><path fill="#052844" d="M 287.226562 228.484375 L 287.277344 229.015625 C 287.566406 232.515625 288.183594 236.011719 289.125 239.410156 L 289.269531 239.921875 L 289.773438 239.761719 C 293.292969 238.652344 296.996094 238.148438 300.472656 237.769531 L 300.964844 237.722656 L 300.933594 237.222656 C 300.683594 233.457031 299.351562 230.339844 296.972656 227.960938 L 296.804688 227.792969 L 296.5625 227.816406 C 293.773438 228.097656 290.898438 228.308594 287.757812 228.460938 L 287.226562 228.484375 " fill-opacity="1" fill-rule="nonzero"/></g><path fill="#052844" d="M 142.621094 234.203125 C 147.125 233.867188 151.335938 234.8125 155.785156 235.808594 L 156.804688 236.035156 C 161.691406 237.128906 166.679688 237.511719 171.5 237.890625 C 172.566406 237.972656 173.636719 238.050781 174.703125 238.140625 C 178.335938 238.453125 181.964844 238.804688 185.605469 239.160156 C 193.71875 239.953125 202.105469 240.773438 210.386719 241.007812 C 212.851562 241.070312 215.335938 241.105469 217.839844 241.105469 C 227.230469 241.105469 236.949219 240.636719 247.335938 239.707031 C 251.777344 239.304688 256.34375 238.984375 260.75 238.679688 C 269.15625 238.082031 277.847656 237.472656 286.222656 236.308594 L 286.722656 236.234375 L 286.488281 234.042969 L 285.984375 234.097656 C 254.164062 237.273438 225.398438 238.292969 198.046875 237.199219 C 182.382812 236.589844 169.683594 235.5625 158.066406 233.945312 C 153.808594 233.351562 149.382812 232.429688 145.101562 231.527344 C 137.078125 229.851562 128.78125 228.105469 120.707031 228.332031 L 120.480469 228.324219 L 120.328125 228.546875 L 119.316406 229.269531 L 120.152344 229.632812 C 126.191406 232.234375 132.644531 233.90625 138.886719 235.511719 L 142.019531 236.332031 L 141.898438 235.175781 C 141.855469 234.886719 141.90625 234.636719 142.035156 234.46875 C 142.164062 234.316406 142.355469 234.21875 142.621094 234.203125 " fill-opacity="1" fill-rule="nonzero"/><path fill="#052844" d="M 289.5 207.027344 L 289.148438 207.027344 C 282.617188 206.964844 275.980469 206.59375 269.5625 206.25 C 263.707031 205.925781 257.660156 205.597656 251.691406 205.492188 L 251.054688 205.476562 L 251.5625 207.953125 C 252.6875 213.4375 253.859375 219.117188 254.003906 224.851562 L 254.019531 225.34375 L 254.519531 225.351562 C 257.660156 225.375 260.800781 225.429688 263.941406 225.480469 C 267.980469 225.550781 272.078125 225.625 276.191406 225.625 C 282.34375 225.625 288.546875 225.464844 294.675781 224.910156 L 295.292969 224.851562 L 295.125 224.257812 C 293.339844 218.058594 291.253906 211.976562 289.621094 207.367188 L 289.5 207.027344 " fill-opacity="1" fill-rule="nonzero"/><path fill="#052844" d="M 120.425781 189.402344 L 120.546875 189.75 L 120.90625 189.757812 C 121.886719 189.773438 122.867188 189.796875 123.847656 189.835938 L 124.539062 189.871094 L 124.371094 189.195312 C 123.773438 186.898438 123.636719 184.433594 123.511719 182.054688 C 123.46875 181.332031 123.421875 180.601562 123.375 179.867188 L 123.339844 179.410156 L 122.875 179.394531 C 121.816406 179.355469 120.753906 179.332031 119.636719 179.296875 L 119.019531 179.28125 L 119.125 179.902344 C 119.316406 181.066406 119.398438 182.269531 119.484375 183.445312 C 119.628906 185.410156 119.773438 187.445312 120.425781 189.402344 " fill-opacity="1" fill-rule="nonzero"/><path fill="#052844" d="M 149.464844 192.289062 L 150.148438 192.375 C 151.265625 192.527344 152.394531 192.699219 153.519531 192.859375 L 154.210938 192.953125 L 154.097656 192.273438 C 153.601562 189.15625 152.894531 185.066406 151.777344 180.992188 L 151.679688 180.648438 L 151.328125 180.617188 C 150.917969 180.582031 150.515625 180.550781 150.113281 180.527344 C 149.714844 180.496094 149.320312 180.472656 148.917969 180.4375 L 148.210938 180.375 L 148.371094 181.066406 C 148.804688 182.960938 149.0625 184.945312 149.3125 186.847656 C 149.472656 188.125 149.640625 189.402344 149.859375 190.664062 C 149.914062 191.027344 149.882812 191.355469 149.746094 191.660156 L 149.464844 192.289062 " fill-opacity="1" fill-rule="nonzero"/><path fill="#052844" d="M 154.96875 180.984375 L 155.144531 181.699219 C 156.035156 185.292969 156.667969 188.9375 157.160156 192.023438 C 157.199219 192.304688 157.183594 192.570312 157.105469 192.824219 L 156.917969 193.386719 L 157.503906 193.484375 C 162.847656 194.351562 168.390625 195.355469 174.460938 196.5625 L 175.234375 196.714844 L 175.058594 195.941406 C 174.617188 193.964844 173.828125 192.085938 173.074219 190.261719 C 172.230469 188.246094 171.363281 186.160156 170.976562 183.980469 L 170.914062 183.644531 L 170.582031 183.570312 C 165.90625 182.488281 160.894531 181.644531 155.707031 181.066406 L 154.96875 180.984375 " fill-opacity="1" fill-rule="nonzero"/><path fill="#052844" d="M 158.542969 122.046875 L 157.988281 122.105469 C 156.46875 122.257812 155.128906 122.425781 153.898438 122.625 L 153.535156 122.683594 L 153.472656 123.042969 C 153.375 123.589844 153.3125 124.28125 153.273438 125.09375 L 153.246094 125.621094 L 153.777344 125.632812 C 154.203125 125.632812 154.621094 125.640625 155.046875 125.640625 C 156.066406 125.640625 157.078125 125.621094 158.101562 125.613281 L 158.597656 125.503906 L 158.597656 124.996094 C 158.597656 124.265625 158.582031 123.445312 158.558594 122.59375 L 158.542969 122.046875 " fill-opacity="1" fill-rule="nonzero"/><path fill="#052844" d="M 204.328125 222.597656 C 208.675781 226.121094 214.417969 226.628906 218.933594 226.675781 C 219.238281 226.683594 219.542969 226.683594 219.847656 226.683594 C 224.1875 226.683594 228.546875 226.363281 232.773438 226.050781 C 235.707031 225.839844 238.734375 225.617188 241.714844 225.503906 C 244.261719 225.40625 247.023438 225.351562 250.414062 225.335938 L 250.9375 225.335938 L 250.925781 224.8125 C 250.910156 224.128906 250.886719 223.464844 250.832031 222.796875 L 250.695312 222.347656 L 250.246094 222.324219 C 244.453125 222.058594 238.574219 221.609375 232.886719 221.183594 C 222.980469 220.433594 212.730469 219.664062 202.609375 219.777344 L 201.421875 219.792969 L 202.242188 220.652344 C 202.785156 221.214844 203.519531 221.953125 204.328125 222.597656 " fill-opacity="1" fill-rule="nonzero"/><path fill="#052844" d="M 180.800781 75.898438 L 180.382812 75.835938 C 177.84375 75.480469 174.800781 75.265625 173.746094 76.855469 C 172.4375 78.847656 172.519531 81.609375 172.589844 84.054688 L 172.625 85.023438 L 173.160156 84.984375 C 175.339844 84.824219 177.730469 84.695312 180.464844 84.589844 L 180.953125 84.574219 L 180.953125 84.078125 C 180.953125 84.035156 180.953125 83.988281 180.945312 83.941406 C 180.945312 81.652344 180.929688 78.953125 180.816406 76.324219 L 180.800781 75.898438 " fill-opacity="1" fill-rule="nonzero"/><path fill="#052844" d="M 182.292969 201.96875 C 181.78125 202.015625 181.386719 202.304688 181.171875 202.761719 C 180.132812 204.988281 183.492188 211.519531 184.09375 212.402344 L 184.230469 212.601562 L 186.054688 212.765625 C 187.121094 212.859375 188.191406 212.949219 189.257812 213.027344 L 189.773438 213.078125 L 189.8125 212.554688 C 189.949219 210.652344 189.75 206.957031 188.117188 205.203125 C 186.640625 203.605469 184.457031 201.742188 182.292969 201.96875 " fill-opacity="1" fill-rule="nonzero"/><path fill="#052844" d="M 160.476562 85.996094 C 163.273438 85.765625 166.058594 85.53125 168.839844 85.3125 L 169.3125 85.273438 L 169.3125 84.40625 L 169.25 84.164062 C 169.144531 83.964844 169.097656 83.738281 169.097656 83.480469 C 169.074219 81.933594 169.015625 80.398438 168.960938 78.863281 L 168.894531 77.265625 L 168.453125 77.214844 C 165.957031 76.945312 163.128906 76.75 161.207031 77.914062 C 158.796875 79.394531 159.488281 83.183594 159.90625 85.449219 L 160.011719 86.035156 L 160.476562 85.996094 " fill-opacity="1" fill-rule="nonzero"/><g clip-path="url(#b5c98a6ed1)"><path fill="#052844" d="M 257.347656 244.96875 C 219.847656 246.589844 181.066406 248.269531 143.503906 239.714844 L 143.496094 239.714844 C 143.398438 239.691406 143.3125 239.65625 143.199219 239.578125 L 143.046875 239.472656 L 142.859375 239.488281 C 142.425781 239.511719 142.363281 239.175781 142.347656 239.070312 L 142.242188 238.125 L 142.105469 237.671875 L 141.640625 237.683594 C 141.558594 237.683594 141.511719 237.683594 141.472656 237.671875 C 139.945312 237.257812 138.425781 236.871094 136.925781 236.484375 C 129.300781 234.558594 122.089844 232.726562 116.175781 227.390625 C 125.390625 225.96875 134.667969 227.960938 143.65625 229.890625 C 147.6875 230.757812 151.867188 231.65625 155.972656 232.226562 C 169.199219 234.066406 183.410156 235.222656 200.691406 235.875 C 226.835938 236.863281 253.835938 235.851562 285.679688 232.691406 L 286.273438 232.636719 L 286.121094 232.058594 C 285.933594 231.3125 285.703125 230.667969 285.4375 230.082031 C 285.324219 229.832031 285.339844 229.59375 285.492188 229.359375 L 286.023438 228.53125 L 285.042969 228.5625 C 278.160156 228.789062 271.148438 228.667969 264.359375 228.554688 C 254.992188 228.394531 245.3125 228.234375 235.800781 228.964844 C 234.621094 229.054688 233.425781 229.160156 232.21875 229.261719 C 225.109375 229.882812 217.75 230.515625 210.851562 228.925781 C 203.042969 228.515625 194.738281 228.011719 186.488281 226.683594 C 179.828125 225.617188 173.082031 224.378906 166.550781 223.191406 C 160.355469 222.050781 153.9375 220.886719 147.617188 219.855469 C 139.625 218.554688 131.488281 217.117188 123.621094 215.726562 C 105.636719 212.554688 87.03125 209.269531 68.621094 207.332031 L 68.429688 207.308594 L 68.261719 207.429688 C 67.34375 208.113281 66.414062 208.761719 65.472656 209.421875 L 64.4375 210.152344 L 64.726562 210.570312 C 69.113281 216.875 71.59375 223.847656 74.210938 231.238281 L 75.242188 234.113281 C 78.574219 243.441406 82.019531 253.074219 93.144531 254.742188 C 95.972656 255.160156 98.824219 255.304688 101.660156 255.304688 C 105.15625 255.304688 108.640625 255.082031 112.054688 254.863281 C 113.582031 254.757812 115.117188 254.664062 116.640625 254.582031 C 128.28125 253.972656 140.128906 254.109375 151.59375 254.238281 L 152.789062 254.253906 C 165.351562 254.390625 177.660156 254.429688 190.09375 253.378906 C 193.847656 253.054688 197.597656 252.703125 201.339844 252.339844 C 209.664062 251.546875 218.265625 250.71875 226.78125 250.429688 C 250.992188 249.617188 298.210938 250.253906 298.683594 250.261719 L 299.085938 250.261719 L 299.1875 249.867188 C 299.582031 248.347656 300.082031 246.332031 300.441406 244.246094 L 300.546875 243.640625 L 299.9375 243.640625 C 285.757812 243.730469 271.316406 244.355469 257.347656 244.96875 " fill-opacity="1" fill-rule="nonzero"/></g><g clip-path="url(#e0edb1d19b)"><path fill="#052844" d="M 300.386719 239.214844 C 297.042969 239.578125 293.46875 240.074219 289.933594 241.222656 L 289.292969 241.425781 L 289.664062 241.988281 L 289.78125 242.355469 L 290.160156 242.347656 C 293.542969 242.277344 296.914062 242.226562 300.304688 242.210938 L 300.773438 242.203125 L 300.820312 241.746094 C 300.882812 241.0625 300.933594 240.414062 300.957031 239.746094 L 300.980469 239.152344 L 300.386719 239.214844 " fill-opacity="1" fill-rule="nonzero"/></g><g clip-path="url(#6082c9ae62)"><path fill="#052844" d="M 69.183594 202.722656 L 69.640625 202.320312 L 69.167969 201.933594 C 67.3125 200.449219 65.054688 198.921875 62.371094 198.90625 L 61.679688 198.90625 L 61.882812 199.574219 C 62.105469 200.328125 62.347656 201.074219 62.582031 201.824219 C 63.015625 203.179688 63.464844 204.585938 63.816406 205.984375 L 63.996094 206.707031 L 64.613281 206.28125 C 66.378906 205.042969 67.875 203.886719 69.183594 202.722656 " fill-opacity="1" fill-rule="nonzero"/></g><path fill="#052844" d="M 238.695312 206.449219 L 238.789062 207.050781 C 239.273438 209.910156 239.359375 212.859375 239.441406 215.710938 C 239.464844 216.515625 239.496094 217.328125 239.527344 218.136719 L 239.546875 218.59375 L 240.003906 218.628906 C 243.511719 218.875 246.742188 219.078125 249.867188 219.230469 L 250.484375 219.261719 L 250.40625 218.652344 C 249.949219 215.285156 249.25 211.894531 248.566406 208.625 L 248.042969 206.097656 L 247.59375 206.136719 C 245.070312 206.34375 242.363281 206.449219 239.296875 206.449219 L 238.695312 206.449219 " fill-opacity="1" fill-rule="nonzero"/><path fill="#052844" d="M 251.21875 201.78125 C 250.816406 199.902344 250.65625 198.328125 250.734375 196.980469 L 250.757812 196.472656 L 250.261719 196.433594 C 247.648438 196.214844 246.339844 199.597656 246.101562 201.917969 L 246.09375 201.992188 L 246.101562 202.070312 C 246.140625 202.257812 246.179688 202.449219 246.1875 202.632812 L 246.226562 203.132812 L 246.726562 203.117188 C 247.070312 203.101562 247.410156 203.085938 247.785156 203.058594 L 248.027344 203.058594 L 248.1875 202.867188 C 248.445312 202.539062 248.816406 202.378906 249.28125 202.378906 C 249.722656 202.402344 250.222656 202.386719 250.703125 202.402344 L 251.351562 202.425781 L 251.21875 201.78125 " fill-opacity="1" fill-rule="nonzero"/><path fill="#052844" d="M 235.640625 206.820312 L 235.5625 206.417969 L 235.152344 206.410156 C 233.617188 206.371094 232.082031 206.296875 230.539062 206.21875 L 229.832031 206.175781 L 229.808594 206.699219 C 229.6875 209.648438 229.585938 213.527344 229.9375 217.453125 L 229.96875 217.886719 L 236.453125 218.371094 L 236.4375 217.800781 C 236.414062 217.140625 236.402344 216.492188 236.386719 215.832031 C 236.324219 212.867188 236.257812 209.808594 235.640625 206.820312 " fill-opacity="1" fill-rule="nonzero"/><path fill="#052844" d="M 243 202.433594 L 242.992188 202.03125 C 242.476562 199.839844 241.214844 198.394531 239.519531 198.054688 C 238.847656 197.925781 238.234375 198.039062 237.730469 198.410156 C 236.78125 199.101562 236.4375 200.503906 236.316406 201.679688 C 236.347656 202.0625 236.363281 202.457031 236.363281 202.84375 L 236.363281 203.355469 L 236.871094 203.355469 C 237.699219 203.375 238.46875 203.382812 239.199219 203.382812 C 240.371094 203.382812 241.457031 203.363281 242.5 203.332031 L 243.007812 203.316406 L 243.007812 202.820312 C 243.007812 202.769531 243 202.722656 242.992188 202.648438 L 243 202.433594 " fill-opacity="1" fill-rule="nonzero"/><path fill="#052844" d="M 271.691406 194.078125 L 271.300781 194.191406 L 271.300781 194.59375 L 271.363281 194.835938 C 272.519531 197.035156 272.867188 199.703125 272.390625 202.753906 L 272.304688 203.316406 L 272.867188 203.347656 C 274.0625 203.414062 275.25 203.46875 276.433594 203.527344 L 276.960938 203.550781 L 276.96875 203.011719 C 276.976562 200.867188 276.328125 198.480469 275.164062 196.457031 C 274.472656 195.242188 273.347656 193.667969 271.691406 194.078125 " fill-opacity="1" fill-rule="nonzero"/><path fill="#052844" d="M 280.046875 203.1875 L 280.03125 203.695312 L 280.535156 203.71875 C 282.382812 203.800781 284.257812 203.855469 286.105469 203.894531 L 286.554688 203.902344 L 286.625 203.460938 C 287.109375 200.488281 285.726562 196.875 283.40625 195.050781 C 281.78125 193.773438 279.894531 193.492188 278.085938 194.257812 L 277.558594 194.480469 L 277.839844 194.988281 C 279.316406 197.558594 280.121094 200.539062 280.046875 203.1875 " fill-opacity="1" fill-rule="nonzero"/><path fill="#052844" d="M 260.230469 194.808594 C 259.738281 194.761719 259.257812 194.722656 258.761719 194.699219 C 258.566406 194.683594 258.335938 194.664062 258.085938 194.632812 C 256.953125 194.519531 255.546875 194.382812 254.6875 194.921875 C 253.789062 195.484375 253.78125 197.066406 253.890625 198.578125 C 253.964844 199.6875 254.148438 200.84375 254.46875 202.097656 L 254.566406 202.472656 L 254.953125 202.480469 C 257.074219 202.554688 259.195312 202.632812 261.296875 202.730469 L 261.988281 202.761719 L 261.675781 201.519531 C 261.160156 199.515625 260.574219 197.253906 260.695312 195.347656 L 260.726562 194.851562 L 260.230469 194.808594 " fill-opacity="1" fill-rule="nonzero"/><path fill="#052844" d="M 289.75 202.632812 L 289.726562 203.300781 L 290.378906 203.15625 C 291.902344 202.820312 292.996094 202.039062 293.445312 200.972656 C 293.75 200.25 293.902344 199.050781 292.898438 197.429688 C 291.734375 195.53125 289.96875 194.410156 288.160156 194.410156 C 288.144531 194.410156 288.136719 194.410156 288.121094 194.410156 L 287.179688 194.417969 L 287.695312 195.203125 C 289.132812 197.40625 289.839844 199.976562 289.75 202.632812 " fill-opacity="1" fill-rule="nonzero"/><g clip-path="url(#281a268c1f)"><path fill="#052844" d="M 161.675781 98.214844 L 187.394531 98.214844 C 186.140625 99.316406 184.601562 100.609375 182.542969 102.246094 C 181.667969 102.9375 180.6875 103.726562 179.691406 104.535156 C 177.613281 103.773438 175.578125 103.019531 173.683594 102.253906 C 173.730469 101.148438 173.820312 100.039062 173.84375 98.9375 L 173.851562 98.40625 L 170.792969 98.40625 L 170.800781 98.929688 C 170.824219 100.648438 170.792969 102.375 170.75 104.101562 C 170.710938 104.101562 170.671875 104.09375 170.640625 104.101562 C 165.722656 105.082031 160.796875 106.175781 155.90625 107.332031 C 157.714844 104.398438 159.640625 101.355469 161.675781 98.214844 Z M 198.183594 91.539062 C 203.902344 87.289062 210.21875 83.78125 216.449219 81.394531 C 218.023438 80.792969 220.347656 80.300781 222.210938 79.90625 C 222.660156 79.8125 223.078125 79.722656 223.457031 79.632812 L 223.414062 79.722656 C 219.65625 86.382812 215.96875 93.171875 212.320312 100.015625 L 194.722656 96.496094 C 194.554688 95.949219 194.0625 95.546875 193.460938 95.546875 L 193.347656 95.546875 C 194.65625 94.335938 195.984375 93.179688 198.183594 91.539062 Z M 225.59375 81.3125 L 225.59375 102.671875 L 216.058594 100.761719 C 219.40625 94.277344 222.636719 87.773438 225.59375 81.3125 Z M 273.273438 114.304688 C 266.566406 118.554688 260.109375 123.894531 253.859375 129.125 C 253.722656 128.964844 253.554688 128.835938 253.328125 128.78125 C 251.480469 128.347656 248.613281 127.65625 245.136719 126.730469 C 239.882812 125.351562 234.355469 123.679688 227.0625 121.230469 C 227.101562 119.230469 227.125 117.277344 227.132812 115.390625 L 227.132812 105.074219 Z M 248.117188 133.90625 C 240.332031 140.289062 232.804688 146.871094 225.160156 153.59375 C 226.144531 142.5625 226.765625 132.441406 227.003906 123.382812 C 234.058594 125.734375 239.457031 127.367188 244.605469 128.722656 C 247.683594 129.535156 250.238281 130.160156 252.085938 130.601562 C 250.75 131.710938 249.425781 132.828125 248.117188 133.90625 Z M 208.675781 114.769531 C 210.820312 110.761719 212.964844 106.722656 215.078125 102.664062 L 225.59375 104.769531 L 225.59375 108.160156 L 225.246094 120.609375 C 220.570312 119.027344 215.15625 117.117188 208.675781 114.769531 Z M 202.039062 112.367188 C 198.546875 111.089844 194.792969 109.804688 191.019531 108.511719 C 188 107.476562 184.921875 106.425781 181.949219 105.355469 C 182.601562 104.832031 183.234375 104.320312 183.8125 103.855469 C 186.960938 101.363281 188.929688 99.636719 190.480469 98.214844 L 192.84375 98.214844 L 211.316406 101.910156 C 209.277344 105.773438 207.246094 109.644531 205.230469 113.527344 C 204.183594 113.148438 203.140625 112.769531 202.039062 112.367188 Z M 173.195312 109.773438 C 173.347656 107.992188 173.476562 106.207031 173.578125 104.417969 C 174.953125 104.960938 176.375 105.507812 177.835938 106.046875 C 176.046875 107.515625 174.367188 108.875 173.195312 109.773438 Z M 168.785156 126.699219 L 144.78125 126.699219 C 147.449219 121.597656 150.667969 115.941406 154.40625 109.789062 C 159.785156 108.496094 165.242188 107.285156 170.679688 106.191406 C 170.382812 113.066406 169.625 119.945312 168.808594 126.707031 C 168.800781 126.707031 168.792969 126.699219 168.785156 126.699219 Z M 139.109375 149.824219 C 135.945312 155.183594 132.613281 160.519531 129.1875 165.707031 C 128.394531 165.761719 127.597656 165.820312 126.8125 165.890625 C 126.492188 165.472656 125.984375 165.210938 125.429688 165.265625 C 125.101562 165.304688 124.820312 165.464844 124.59375 165.667969 C 124.433594 164.078125 124.136719 162.582031 123.203125 161.796875 C 122.914062 161.546875 122.570312 161.417969 122.199219 161.351562 C 122.214844 161.335938 122.242188 161.328125 122.257812 161.3125 C 125.164062 158.011719 127.953125 154.535156 130.546875 150.949219 C 137.40625 141.480469 141.34375 133.519531 142.828125 130.523438 L 142.972656 130.242188 C 143.222656 129.734375 143.503906 129.199219 143.769531 128.691406 C 143.875 128.722656 143.984375 128.753906 144.105469 128.753906 L 150.644531 128.753906 C 147.03125 135.871094 143.160156 142.957031 139.109375 149.824219 Z M 69.144531 147.898438 C 69.070312 148.082031 69.023438 148.285156 69.070312 148.5 C 70.832031 156.925781 72.910156 165.257812 75.257812 173.257812 C 77.699219 181.570312 78.984375 184.679688 79.410156 185.699219 C 82.050781 192.085938 86.511719 200.273438 89.917969 205.628906 C 84.246094 204.882812 78.734375 204.113281 73.34375 203.308594 L 73.078125 203.269531 L 72.894531 203.460938 C 72.332031 204.046875 71.707031 204.632812 70.933594 205.300781 L 70.042969 206.074219 L 71.207031 206.199219 C 86.769531 207.96875 102.488281 210.722656 117.695312 213.390625 C 125.96875 214.84375 134.523438 216.347656 142.949219 217.664062 C 150.097656 218.789062 157.328125 220.113281 164.332031 221.390625 C 170.042969 222.433594 175.949219 223.519531 181.78125 224.484375 C 190.03125 225.839844 197.992188 226.53125 204 226.980469 L 205.894531 227.117188 L 204.328125 226.042969 C 201.816406 224.316406 199.726562 222.058594 197.507812 219.671875 C 196.601562 218.683594 195.660156 217.671875 194.65625 216.660156 L 194.519531 216.523438 L 194.328125 216.507812 C 180.816406 215.496094 167.046875 214.03125 153.738281 212.628906 C 146.84375 211.894531 139.953125 211.164062 133.078125 210.492188 C 118.175781 209.035156 104.953125 207.566406 92.597656 205.976562 C 89.175781 200.867188 84.164062 191.820312 81.304688 184.914062 C 80.894531 183.917969 79.640625 180.890625 77.234375 172.679688 C 75.097656 165.394531 73.191406 157.835938 71.539062 150.171875 L 105.667969 182.679688 C 105.675781 182.6875 105.683594 182.6875 105.683594 182.6875 C 105.773438 183.910156 105.894531 185.113281 106.023438 186.296875 C 106.160156 187.546875 106.304688 188.800781 106.390625 190.054688 L 106.425781 190.601562 L 107.105469 190.511719 C 107.894531 190.40625 108.679688 190.3125 109.476562 190.222656 L 109.992188 190.160156 L 109.933594 189.652344 C 109.734375 187.910156 109.660156 186.125 109.597656 184.398438 C 109.539062 183 109.476562 181.5625 109.355469 180.140625 L 109.316406 179.621094 L 108.792969 179.675781 C 108.699219 179.683594 108.609375 179.699219 108.511719 179.707031 L 67.382812 140.539062 C 94.519531 127.695312 122.828125 117.589844 151.585938 110.472656 C 147.390625 117.445312 143.898438 123.75 141.125 129.324219 L 140.988281 129.605469 C 139.527344 132.5625 135.640625 140.410156 128.875 149.746094 C 126.320312 153.273438 123.582031 156.703125 120.714844 159.949219 C 120.335938 160.375 120.378906 161.023438 120.804688 161.402344 C 120.835938 161.433594 120.882812 161.441406 120.914062 161.464844 C 120.675781 161.585938 120.457031 161.738281 120.289062 161.980469 C 119.519531 163.082031 119.878906 165.28125 120.199219 166.605469 C 118.480469 166.832031 116.769531 167.054688 115.074219 167.335938 C 114.230469 167.464844 113.660156 168.261719 113.796875 169.097656 C 113.925781 169.941406 114.722656 170.511719 115.558594 170.375 C 118.464844 169.910156 121.390625 169.554688 124.320312 169.242188 L 126.121094 185.476562 C 126.175781 185.980469 126.480469 186.375 126.882812 186.617188 C 127.050781 187.683594 127.285156 188.746094 127.710938 189.742188 L 127.832031 190.039062 L 128.144531 190.054688 C 129.40625 190.136719 130.652344 190.238281 131.878906 190.328125 L 132.578125 190.382812 L 132.417969 189.703125 C 131.617188 186.335938 130.738281 182.945312 129.992188 180.085938 L 129.792969 179.707031 L 129.414062 179.691406 C 129.132812 179.675781 128.859375 179.667969 128.578125 179.660156 L 127.390625 168.929688 C 131.589844 168.566406 135.808594 168.367188 140 168.34375 C 148.835938 168.285156 158.960938 168.976562 166.917969 170.140625 L 166.96875 170.375 L 167.3125 170.4375 C 168.582031 170.671875 169.859375 170.96875 171.089844 171.257812 L 171.898438 171.449219 L 171.941406 170.847656 C 172.042969 169.273438 171.796875 168.164062 171.167969 167.449219 C 170.460938 166.628906 169.578125 166.09375 168.910156 166.070312 C 168.101562 166.027344 167.5 166.058594 167.046875 166.886719 C 167.023438 166.929688 167.007812 166.984375 166.992188 167.03125 C 158.953125 165.882812 148.855469 165.21875 139.984375 165.257812 C 137.238281 165.273438 134.492188 165.386719 131.734375 165.546875 C 134.882812 160.726562 137.960938 155.808594 140.878906 150.871094 C 145.132812 143.664062 149.191406 136.226562 152.957031 128.753906 L 168.558594 128.753906 C 168.46875 129.445312 168.382812 130.136719 168.300781 130.820312 C 166.992188 141.328125 165.640625 152.1875 165.796875 162.953125 L 165.804688 163.753906 L 166.535156 163.402344 C 166.886719 163.234375 167.257812 163.113281 167.632812 163.03125 L 168.011719 162.960938 L 168.050781 162.582031 C 168.414062 158.636719 168.664062 154.644531 168.894531 150.78125 C 169.28125 144.652344 169.675781 138.316406 170.527344 132.066406 L 170.800781 130.023438 C 171.59375 124.199219 172.375 118.265625 172.960938 112.28125 C 173.144531 112.273438 173.328125 112.230469 173.492188 112.113281 C 174.710938 111.253906 177.074219 109.332031 179.5625 107.300781 C 179.742188 107.15625 179.910156 107.011719 180.085938 106.867188 C 183.445312 108.078125 186.921875 109.285156 190.351562 110.457031 C 194.121094 111.75 197.855469 113.027344 201.332031 114.296875 C 202.351562 114.667969 203.316406 115.019531 204.28125 115.371094 C 198.640625 126.304688 193.125 137.292969 187.683594 148.105469 C 183.722656 155.996094 179.78125 163.859375 175.84375 171.585938 L 175.03125 172.695312 L 176.222656 173.203125 C 176.429688 173.296875 176.480469 173.425781 176.496094 173.476562 L 177.324219 175.644531 L 178.375 173.578125 C 180.96875 168.488281 183.515625 163.371094 186.070312 158.261719 C 190.585938 149.199219 195.25 139.832031 200.09375 130.746094 C 201.660156 127.816406 203.253906 124.867188 204.851562 121.886719 C 205.789062 120.136719 206.746094 118.378906 207.695312 116.601562 C 214.585938 119.09375 220.296875 121.109375 225.191406 122.761719 L 224.734375 139.03125 C 224.417969 143.929688 224.027344 149.054688 223.535156 154.390625 C 223.519531 154.574219 223.582031 154.742188 223.679688 154.886719 C 209.09375 167.707031 194.015625 180.921875 177.402344 192.472656 L 177.066406 192.707031 L 177.210938 193.082031 C 177.691406 194.320312 178.027344 195.476562 178.253906 196.625 L 178.414062 197.414062 L 179.058594 196.9375 C 196.953125 184.039062 213.679688 169.128906 229.847656 154.710938 L 233.511719 151.457031 C 240.492188 145.246094 247.722656 138.828125 254.460938 132.015625 L 255.023438 131.445312 C 258.140625 128.28125 261.089844 125.292969 264.890625 123.070312 L 265.972656 122.441406 C 269.445312 120.425781 272.730469 118.523438 275.394531 115.453125 L 275.660156 115.148438 L 275.421875 114.8125 C 275.226562 114.539062 275.011719 114.230469 274.824219 113.925781 L 274.640625 113.613281 C 274.648438 113.589844 274.664062 113.566406 274.664062 113.535156 C 274.777344 112.980469 274.414062 112.433594 273.863281 112.328125 L 227.132812 102.976562 L 227.132812 80.429688 C 227.132812 80.003906 226.789062 79.660156 226.363281 79.660156 C 226.21875 79.660156 226.082031 79.707031 225.96875 79.789062 L 225.269531 79.480469 C 225.085938 79.410156 224.910156 79.34375 224.734375 79.289062 C 225.183594 79.082031 225.429688 78.582031 225.292969 78.09375 C 225.140625 77.546875 224.570312 77.226562 224.027344 77.386719 C 223.519531 77.53125 222.714844 77.699219 221.785156 77.890625 C 219.847656 78.300781 217.4375 78.808594 215.710938 79.464844 C 209.308594 81.925781 202.828125 85.523438 196.960938 89.882812 C 194.039062 92.0625 192.535156 93.476562 190.808594 95.105469 C 190.65625 95.25 190.496094 95.394531 190.335938 95.546875 L 163.402344 95.546875 C 164.75 93.484375 166.140625 91.378906 167.578125 89.226562 C 167.585938 89.21875 167.585938 89.21875 167.585938 89.210938 L 167.890625 89.195312 L 168.050781 89.332031 C 169.570312 90.597656 170.800781 92.019531 171.722656 93.554688 L 171.949219 93.917969 L 172.34375 93.765625 C 174.414062 92.984375 175.28125 90.808594 176.011719 88.824219 L 195.582031 87.933594 C 196.3125 87.902344 196.882812 87.273438 196.851562 86.542969 C 196.816406 85.804688 196.214844 85.242188 195.453125 85.265625 L 172.171875 86.316406 L 172.171875 70.550781 L 193.53125 69.425781 C 194.273438 69.382812 194.835938 68.757812 194.792969 68.019531 C 194.761719 67.289062 194.152344 66.71875 193.386719 66.757812 L 172.171875 67.875 L 172.171875 66.40625 C 172.359375 66.378906 172.535156 66.371094 172.710938 66.339844 C 173.707031 66.195312 174.246094 64.949219 174.003906 64.066406 C 173.714844 63.007812 172.71875 62.621094 171.730469 62.773438 C 171.039062 62.878906 170.332031 62.855469 169.644531 62.796875 C 168.648438 62.71875 167.796875 63.707031 167.796875 64.644531 C 167.796875 65.664062 168.566406 66.332031 169.507812 66.46875 L 169.507812 68.011719 L 154.316406 68.8125 C 153.578125 68.855469 153.015625 69.480469 153.054688 70.21875 C 153.085938 70.933594 153.679688 71.480469 154.386719 71.480469 C 154.414062 71.480469 154.4375 71.480469 154.460938 71.480469 L 169.507812 70.695312 L 169.507812 86.445312 L 150.210938 87.320312 C 149.480469 87.355469 148.910156 87.980469 148.941406 88.71875 C 148.972656 89.433594 149.570312 89.988281 150.277344 89.988281 C 150.292969 89.988281 150.316406 89.988281 150.339844 89.988281 L 165.046875 89.324219 C 163.640625 91.441406 162.277344 93.507812 160.953125 95.546875 L 148.21875 95.546875 C 147.480469 95.546875 146.886719 96.140625 146.886719 96.882812 C 146.886719 97.621094 147.480469 98.214844 148.21875 98.214844 L 159.222656 98.214844 C 157.046875 101.597656 155.007812 104.859375 153.101562 107.984375 C 152.765625 108.0625 152.421875 108.136719 152.089844 108.222656 C 122.601562 115.4375 93.570312 125.800781 65.785156 139.015625 L 65.320312 138.578125 C 64.5 137.792969 63.199219 137.824219 62.421875 138.644531 C 61.632812 139.472656 61.664062 140.773438 62.492188 141.550781 L 69.144531 147.898438 " fill-opacity="1" fill-rule="nonzero"/></g><g fill="#052844" fill-opacity="1"><g transform="translate(117.489428, 284.681939)"><g><path d="M 8.046875 -16.515625 C 7.472656 -16.515625 7.03125 -16.269531 6.71875 -15.78125 C 6.582031 -15.550781 6.515625 -15.296875 6.515625 -15.015625 L 6.515625 -0.71875 C 6.515625 0.414062 6.207031 1.425781 5.59375 2.3125 C 4.988281 3.207031 4.25 3.847656 3.375 4.234375 C 2.5 4.617188 1.617188 4.8125 0.734375 4.8125 C 0.535156 4.8125 0.332031 4.800781 0.125 4.78125 L 0.125 4.578125 C 1.082031 4.171875 1.785156 3.476562 2.234375 2.5 C 2.691406 1.519531 2.921875 0.421875 2.921875 -0.796875 L 2.921875 -15.015625 C 2.898438 -15.597656 2.644531 -16.035156 2.15625 -16.328125 C 1.914062 -16.453125 1.660156 -16.515625 1.390625 -16.515625 L 1.078125 -16.515625 L 1.078125 -16.75 L 8.359375 -16.75 L 8.359375 -16.515625 Z M 8.046875 -16.515625 "/></g></g></g><g fill="#052844" fill-opacity="1"><g transform="translate(128.285534, 284.681939)"><g><path d="M 12.09375 0 L 0.8125 0 L 0.8125 -0.234375 L 1.09375 -0.234375 C 1.46875 -0.234375 1.773438 -0.351562 2.015625 -0.59375 C 2.265625 -0.832031 2.398438 -1.128906 2.421875 -1.484375 L 2.421875 -12.875 C 2.398438 -13.226562 2.265625 -13.523438 2.015625 -13.765625 C 1.773438 -14.003906 1.46875 -14.125 1.09375 -14.125 L 0.8125 -14.125 L 0.8125 -14.359375 L 9.234375 -14.359375 C 9.671875 -14.359375 10.144531 -14.398438 10.65625 -14.484375 C 11.164062 -14.566406 11.523438 -14.644531 11.734375 -14.71875 L 11.734375 -10.921875 L 11.484375 -10.921875 L 11.484375 -11.125 C 11.484375 -11.832031 11.289062 -12.382812 10.90625 -12.78125 C 10.53125 -13.175781 10 -13.382812 9.3125 -13.40625 L 5.859375 -13.40625 L 5.859375 -7.59375 L 8.59375 -7.59375 C 9.132812 -7.601562 9.570312 -7.785156 9.90625 -8.140625 C 10.238281 -8.492188 10.40625 -8.941406 10.40625 -9.484375 L 10.40625 -9.640625 L 10.65625 -9.640625 L 10.65625 -4.578125 L 10.40625 -4.578125 L 10.40625 -4.734375 C 10.40625 -5.484375 10.128906 -6.03125 9.578125 -6.375 C 9.285156 -6.539062 8.96875 -6.625 8.625 -6.625 L 5.859375 -6.625 L 5.859375 -0.953125 L 8.734375 -0.953125 C 9.722656 -0.972656 10.5625 -1.28125 11.25 -1.875 C 11.945312 -2.476562 12.457031 -3.320312 12.78125 -4.40625 L 13 -4.40625 Z M 12.09375 0 "/></g></g></g><g fill="#052844" fill-opacity="1"><g transform="translate(143.366348, 284.681939)"><g><path d="M 7.28125 -14.125 C 6.914062 -14.125 6.597656 -14 6.328125 -13.75 C 6.054688 -13.5 5.910156 -13.191406 5.890625 -12.828125 L 5.890625 -0.734375 C 5.890625 0.285156 5.609375 1.191406 5.046875 1.984375 C 4.484375 2.785156 3.789062 3.351562 2.96875 3.6875 C 2.15625 4.019531 1.359375 4.1875 0.578125 4.1875 C 0.367188 4.1875 0.160156 4.179688 -0.046875 4.171875 L -0.046875 3.953125 C 0.816406 3.585938 1.445312 2.972656 1.84375 2.109375 C 2.25 1.242188 2.453125 0.273438 2.453125 -0.796875 L 2.453125 -12.859375 C 2.429688 -13.203125 2.285156 -13.5 2.015625 -13.75 C 1.742188 -14 1.414062 -14.125 1.03125 -14.125 L 0.765625 -14.125 L 0.765625 -14.359375 L 7.578125 -14.359375 L 7.578125 -14.125 Z M 7.28125 -14.125 "/></g></g></g><g fill="#052844" fill-opacity="1"><g transform="translate(153.109224, 284.681939)"><g><path d="M 15.953125 -0.234375 L 16.140625 -0.234375 L 16.140625 0 L 9.109375 0 L 9.109375 -0.234375 L 9.296875 -0.234375 C 9.617188 -0.234375 9.847656 -0.328125 9.984375 -0.515625 C 10.128906 -0.710938 10.203125 -0.890625 10.203125 -1.046875 C 10.203125 -1.210938 10.171875 -1.382812 10.109375 -1.5625 L 9.171875 -3.765625 L 4.09375 -3.765625 L 3.140625 -1.53125 C 3.078125 -1.375 3.046875 -1.210938 3.046875 -1.046875 C 3.046875 -0.878906 3.117188 -0.703125 3.265625 -0.515625 C 3.421875 -0.328125 3.660156 -0.234375 3.984375 -0.234375 L 4.171875 -0.234375 L 4.171875 0 L -0.609375 0 L -0.609375 -0.234375 L -0.421875 -0.234375 C -0.0859375 -0.234375 0.242188 -0.335938 0.578125 -0.546875 C 0.910156 -0.753906 1.179688 -1.066406 1.390625 -1.484375 L 6.34375 -12.109375 C 7.050781 -13.691406 7.421875 -14.664062 7.453125 -15.03125 L 7.671875 -15.03125 L 14.078125 -1.578125 C 14.285156 -1.117188 14.5625 -0.78125 14.90625 -0.5625 C 15.25 -0.34375 15.597656 -0.234375 15.953125 -0.234375 Z M 4.5 -4.6875 L 8.765625 -4.6875 L 6.65625 -9.6875 Z M 4.5 -4.6875 "/></g></g></g><g fill="#052844" fill-opacity="1"><g transform="translate(170.128923, 284.681939)"><g><path d="M 0.859375 0 L 0.859375 -0.234375 L 1.09375 -0.234375 C 1.601562 -0.234375 1.988281 -0.441406 2.25 -0.859375 C 2.363281 -1.054688 2.425781 -1.273438 2.4375 -1.515625 L 2.4375 -12.859375 C 2.425781 -13.347656 2.203125 -13.710938 1.765625 -13.953125 C 1.554688 -14.066406 1.332031 -14.125 1.09375 -14.125 L 0.84375 -14.125 L 0.84375 -14.359375 L 7.46875 -14.359375 L 7.46875 -14.125 L 7.203125 -14.125 C 6.847656 -14.125 6.539062 -14.003906 6.28125 -13.765625 C 6.019531 -13.523438 5.878906 -13.226562 5.859375 -12.875 L 5.859375 -1.515625 C 5.878906 -1.160156 6.015625 -0.859375 6.265625 -0.609375 C 6.523438 -0.359375 6.835938 -0.234375 7.203125 -0.234375 L 7.4375 -0.234375 L 7.46875 0 Z M 16.640625 0 L 14.796875 0 C 12.578125 0 10.992188 -0.613281 10.046875 -1.84375 C 9.972656 -1.96875 9.625 -2.453125 9 -3.296875 C 7.382812 -5.546875 6.578125 -6.679688 6.578125 -6.703125 L 11.484375 -13.21875 C 11.660156 -13.4375 11.691406 -13.644531 11.578125 -13.84375 C 11.472656 -14.039062 11.285156 -14.140625 11.015625 -14.140625 L 10.796875 -14.140625 L 10.796875 -14.359375 L 15.671875 -14.359375 L 15.671875 -14.140625 L 15.578125 -14.140625 C 14.722656 -14.140625 14.003906 -13.851562 13.421875 -13.28125 L 9.453125 -8.59375 L 14.484375 -1.609375 C 15.117188 -0.691406 15.835938 -0.226562 16.640625 -0.21875 Z M 16.640625 0 "/></g></g></g><g fill="#052844" fill-opacity="1"><g transform="translate(187.842795, 284.681939)"><g/></g></g><g fill="#052844" fill-opacity="1"><g transform="translate(195.431361, 284.681939)"><g><path d="M 0.8125 0 L 0.8125 -0.234375 L 1.09375 -0.234375 C 1.46875 -0.234375 1.773438 -0.351562 2.015625 -0.59375 C 2.265625 -0.832031 2.390625 -1.128906 2.390625 -1.484375 L 2.390625 -12.859375 C 2.390625 -13.203125 2.257812 -13.5 2 -13.75 C 1.75 -14 1.445312 -14.125 1.09375 -14.125 L 0.8125 -14.125 L 0.8125 -14.359375 L 7.46875 -14.359375 L 7.46875 -14.125 L 7.1875 -14.125 C 6.8125 -14.125 6.492188 -14.003906 6.234375 -13.765625 C 5.984375 -13.523438 5.859375 -13.222656 5.859375 -12.859375 L 5.859375 -0.953125 L 8.734375 -0.953125 C 9.722656 -0.972656 10.5625 -1.28125 11.25 -1.875 C 11.9375 -2.476562 12.441406 -3.320312 12.765625 -4.40625 L 13.015625 -4.40625 L 12.09375 0 Z M 0.8125 0 "/></g></g></g><g fill="#052844" fill-opacity="1"><g transform="translate(210.15312, 284.681939)"><g><path d="M 15.953125 -0.234375 L 16.140625 -0.234375 L 16.140625 0 L 9.109375 0 L 9.109375 -0.234375 L 9.296875 -0.234375 C 9.617188 -0.234375 9.847656 -0.328125 9.984375 -0.515625 C 10.128906 -0.710938 10.203125 -0.890625 10.203125 -1.046875 C 10.203125 -1.210938 10.171875 -1.382812 10.109375 -1.5625 L 9.171875 -3.765625 L 4.09375 -3.765625 L 3.140625 -1.53125 C 3.078125 -1.375 3.046875 -1.210938 3.046875 -1.046875 C 3.046875 -0.878906 3.117188 -0.703125 3.265625 -0.515625 C 3.421875 -0.328125 3.660156 -0.234375 3.984375 -0.234375 L 4.171875 -0.234375 L 4.171875 0 L -0.609375 0 L -0.609375 -0.234375 L -0.421875 -0.234375 C -0.0859375 -0.234375 0.242188 -0.335938 0.578125 -0.546875 C 0.910156 -0.753906 1.179688 -1.066406 1.390625 -1.484375 L 6.34375 -12.109375 C 7.050781 -13.691406 7.421875 -14.664062 7.453125 -15.03125 L 7.671875 -15.03125 L 14.078125 -1.578125 C 14.285156 -1.117188 14.5625 -0.78125 14.90625 -0.5625 C 15.25 -0.34375 15.597656 -0.234375 15.953125 -0.234375 Z M 4.5 -4.6875 L 8.765625 -4.6875 L 6.65625 -9.6875 Z M 4.5 -4.6875 "/></g></g></g><g fill="#052844" fill-opacity="1"><g transform="translate(227.172819, 284.681939)"><g><path d="M 16.390625 -14.125 L 16.0625 -14.125 C 15.757812 -14.125 15.503906 -14.03125 15.296875 -13.84375 C 15.085938 -13.664062 14.972656 -13.429688 14.953125 -13.140625 L 14.953125 -5.21875 C 14.953125 -3.5 14.425781 -2.144531 13.375 -1.15625 C 12.320312 -0.175781 10.753906 0.3125 8.671875 0.3125 C 6.585938 0.3125 4.96875 -0.164062 3.8125 -1.125 C 2.65625 -2.082031 2.078125 -3.429688 2.078125 -5.171875 L 2.078125 -13.125 C 2.078125 -13.40625 1.96875 -13.640625 1.75 -13.828125 C 1.539062 -14.023438 1.285156 -14.125 0.984375 -14.125 L 0.640625 -14.125 L 0.640625 -14.359375 L 6.9375 -14.359375 L 6.9375 -14.125 L 6.609375 -14.125 C 6.304688 -14.125 6.050781 -14.023438 5.84375 -13.828125 C 5.632812 -13.640625 5.53125 -13.40625 5.53125 -13.125 L 5.53125 -5.34375 C 5.53125 -3.875 5.867188 -2.722656 6.546875 -1.890625 C 7.222656 -1.054688 8.175781 -0.640625 9.40625 -0.640625 C 10.632812 -0.640625 11.601562 -1.03125 12.3125 -1.8125 C 13.019531 -2.59375 13.375 -3.679688 13.375 -5.078125 L 13.375 -13.125 C 13.363281 -13.425781 13.253906 -13.664062 13.046875 -13.84375 C 12.835938 -14.03125 12.582031 -14.125 12.28125 -14.125 L 11.96875 -14.125 L 11.96875 -14.359375 L 16.390625 -14.359375 Z M 16.390625 -14.125 "/></g></g></g><g fill="#052844" fill-opacity="1"><g transform="translate(245.628729, 284.681939)"><g><path d="M 13.859375 -10.96875 L 13.859375 -11.171875 C 13.859375 -11.859375 13.664062 -12.398438 13.28125 -12.796875 C 12.894531 -13.203125 12.363281 -13.410156 11.6875 -13.421875 L 8.90625 -13.421875 L 8.90625 -1.484375 C 8.914062 -1.128906 9.046875 -0.832031 9.296875 -0.59375 C 9.554688 -0.351562 9.863281 -0.234375 10.21875 -0.234375 L 10.484375 -0.234375 L 10.484375 0 L 3.875 0 L 3.875 -0.234375 L 4.125 -0.234375 C 4.488281 -0.234375 4.796875 -0.351562 5.046875 -0.59375 C 5.304688 -0.832031 5.4375 -1.140625 5.4375 -1.515625 L 5.4375 -13.421875 L 2.6875 -13.421875 C 1.976562 -13.410156 1.429688 -13.203125 1.046875 -12.796875 C 0.671875 -12.398438 0.484375 -11.859375 0.484375 -11.171875 L 0.484375 -10.96875 L 0.234375 -10.96875 L 0.234375 -14.75 C 0.460938 -14.664062 0.832031 -14.582031 1.34375 -14.5 C 1.863281 -14.425781 2.332031 -14.390625 2.75 -14.390625 L 11.578125 -14.390625 C 12.285156 -14.390625 12.863281 -14.441406 13.3125 -14.546875 C 13.769531 -14.648438 14.03125 -14.71875 14.09375 -14.75 L 14.09375 -10.96875 Z M 13.859375 -10.96875 "/></g></g></g><g fill="#052844" fill-opacity="1"><g transform="translate(261.578389, 284.681939)"><g/></g></g><path stroke-linecap="round" transform="matrix(0.75, 0, 0, 0.75, 260.933162, 278.322697)" fill="none" stroke-linejoin="miter" d="M 0.500576 0.502029 L 122.839126 0.502029 " stroke="#052844" stroke-width="1" stroke-opacity="1" stroke-miterlimit="4"/><g mask="url(#a904777b11)"><g transform="matrix(1, 0, 0, 1, 68, 292)"><g clip-path="url(#b2d513b4ca)"><g clip-path="url(#4a5b880e97)"><path fill="#052844" d="M 54.460938 11.535156 L 55.480469 11.324219 C 52.210938 12.097656 48.660156 12.660156 45.074219 12.554688 C 48.976562 12.90625 53.230469 12.484375 57.027344 11.535156 C 60.824219 10.585938 64.199219 9.25 66.695312 7.773438 C 67.117188 8.054688 69.015625 7.738281 70.808594 7.351562 C 72.601562 7 74.324219 6.613281 74.359375 6.507812 C 75.695312 6.050781 77.101562 5.628906 78.507812 5.347656 C 77.523438 5.558594 76.574219 5.769531 75.625 6.050781 C 76.574219 5.769531 77.523438 5.523438 78.507812 5.347656 C 80.722656 4.855469 83.042969 4.644531 85.328125 4.75 C 85.609375 4.75 85.890625 4.785156 86.207031 4.820312 C 86.488281 4.855469 86.769531 4.890625 87.085938 4.925781 C 87.367188 4.960938 87.648438 5.03125 87.929688 5.066406 C 88.210938 5.101562 88.492188 5.171875 88.773438 5.242188 C 89.898438 5.488281 91.023438 5.839844 92.183594 6.296875 C 94.433594 7.210938 96.71875 8.441406 99.179688 9.601562 C 100.410156 10.199219 101.675781 10.761719 103.046875 11.21875 C 103.714844 11.464844 104.417969 11.675781 105.121094 11.851562 L 106.175781 12.132812 C 106.527344 12.238281 106.878906 12.273438 107.265625 12.34375 C 108.847656 12.660156 111.203125 12.835938 113.804688 12.695312 C 116.40625 12.589844 119.324219 12.132812 122.101562 11.535156 C 124.914062 10.9375 127.621094 10.234375 130.011719 9.636719 C 132.402344 9.039062 134.441406 8.582031 135.917969 8.335938 L 137.183594 8.125 C 137.605469 8.054688 138.027344 7.984375 138.449219 7.914062 C 137.042969 8.089844 137.042969 8.125 135.636719 8.335938 C 137.359375 7.84375 139.046875 7.457031 140.664062 7.140625 C 142.316406 6.824219 143.898438 6.542969 145.480469 6.402344 C 144.917969 6.332031 144.8125 6.226562 143.476562 6.226562 C 144.003906 6.191406 144.566406 6.15625 145.09375 6.15625 C 145.832031 5.945312 147.0625 5.804688 148.292969 5.699219 C 149.523438 5.59375 150.789062 5.59375 151.597656 5.523438 C 151.246094 5.699219 152.511719 5.734375 153.636719 5.804688 L 153.179688 5.664062 C 155.324219 5.769531 157.609375 5.945312 159.824219 6.226562 C 162.039062 6.507812 164.21875 6.859375 166.082031 7.28125 C 166.609375 7.386719 166.996094 7.5625 167.207031 7.667969 C 168.402344 7.914062 169.632812 8.160156 170.828125 8.40625 C 170.511719 8.546875 173.78125 9.355469 172.023438 9.039062 C 174.800781 9.460938 177.507812 10.339844 180.25 10.621094 C 182.605469 11.113281 185.066406 11.5 187.597656 11.640625 C 190.09375 11.816406 192.695312 11.746094 195.226562 11.324219 C 200.324219 10.550781 205.035156 8.722656 209.675781 7.210938 L 209.429688 7.210938 C 212.664062 6.15625 215.511719 5.03125 219.695312 4.574219 C 221.136719 4.222656 222.929688 3.90625 224.511719 3.660156 C 226.09375 3.414062 227.429688 3.203125 228.027344 2.992188 C 228.90625 2.957031 229.644531 2.921875 230.3125 2.886719 C 230.980469 2.851562 231.578125 2.816406 232.210938 2.816406 C 233.40625 2.78125 234.636719 2.746094 236.324219 2.816406 C 235.902344 2.675781 236.710938 2.675781 237.449219 2.675781 C 238.1875 2.675781 238.820312 2.710938 237.976562 2.535156 C 236.851562 2.253906 236.253906 2.183594 235.691406 2.148438 C 235.128906 2.113281 234.601562 2.078125 233.652344 1.902344 L 233.722656 1.972656 C 229.1875 1.585938 224.617188 1.621094 220.046875 2.113281 C 217.761719 2.359375 215.511719 2.710938 213.226562 3.167969 C 210.976562 3.625 208.726562 4.222656 206.546875 4.855469 C 203.664062 5.804688 200.746094 6.753906 197.757812 7.386719 C 196.28125 7.703125 194.804688 7.949219 193.328125 8.054688 C 191.851562 8.160156 190.375 8.195312 188.898438 8.125 C 182.535156 7.914062 175.539062 5.945312 169.84375 4.785156 C 168.472656 4.503906 167.523438 4.117188 166.398438 3.765625 C 163.726562 3.238281 160.667969 2.746094 157.503906 2.464844 C 154.339844 2.183594 151.070312 2.113281 148.011719 2.289062 L 148.328125 2.289062 C 145.058594 2.429688 142.632812 2.429688 139.46875 2.921875 C 139.503906 2.992188 139.011719 3.0625 138.765625 3.132812 C 138.625 3.097656 137.394531 3.273438 135.636719 3.695312 C 133.878906 4.082031 131.628906 4.75 129.378906 5.417969 C 127.164062 6.085938 124.914062 6.789062 123.191406 7.28125 C 121.46875 7.773438 120.203125 8.054688 119.921875 8.089844 L 118.972656 8.300781 C 117.390625 8.582031 115.808594 8.722656 114.226562 8.828125 L 113.066406 8.828125 C 112.679688 8.828125 112.292969 8.828125 111.90625 8.792969 C 111.519531 8.757812 111.132812 8.757812 110.746094 8.722656 C 110.359375 8.6875 110.007812 8.617188 109.621094 8.582031 C 108.882812 8.511719 108.144531 8.335938 107.441406 8.195312 C 107.265625 8.160156 107.089844 8.125 106.914062 8.054688 C 106.738281 8.019531 106.5625 7.949219 106.386719 7.914062 C 106.035156 7.808594 105.683594 7.738281 105.367188 7.632812 C 104.03125 7.210938 102.765625 6.683594 101.5 6.15625 C 100.375 5.804688 99.074219 5.347656 98.089844 5.03125 C 97.246094 4.503906 96.964844 4.609375 95.875 4.082031 C 94.574219 3.167969 93.414062 2.605469 92.78125 2.394531 C 92.148438 2.183594 92.042969 2.289062 92.816406 2.640625 L 91.867188 2.324219 C 91.550781 2.21875 91.234375 2.148438 90.917969 2.042969 C 90.285156 1.867188 89.617188 1.726562 88.984375 1.585938 C 88.351562 1.480469 87.71875 1.339844 87.085938 1.269531 C 86.769531 1.234375 86.453125 1.199219 86.171875 1.164062 C 85.855469 1.128906 85.574219 1.128906 85.257812 1.09375 C 84.976562 1.09375 84.695312 1.058594 84.449219 1.09375 L 83.605469 1.199219 C 83.078125 1.199219 82.515625 1.269531 81.988281 1.304688 C 81.53125 1.339844 81.179688 1.375 80.863281 1.339844 C 80.546875 1.339844 80.300781 1.304688 80.054688 1.234375 C 78.894531 1.410156 78.472656 1.445312 78.050781 1.480469 C 77.628906 1.515625 77.171875 1.515625 75.976562 1.691406 C 75.660156 1.65625 74.148438 2.007812 72.707031 2.5 C 71.230469 2.957031 69.789062 3.519531 69.472656 3.554688 L 69.859375 3.414062 C 67.1875 4.152344 65.324219 4.328125 62.757812 5.101562 C 59.207031 6.121094 55.515625 7.246094 51.929688 7.949219 C 50.136719 8.300781 48.34375 8.511719 46.585938 8.617188 C 44.863281 8.6875 43.175781 8.617188 41.59375 8.40625 C 41.558594 8.511719 41.910156 8.546875 42.261719 8.582031 C 42.648438 8.617188 43.035156 8.652344 43.035156 8.792969 C 39.203125 8.476562 35.476562 7.105469 31.609375 5.804688 C 30.941406 5.523438 30.097656 5.136719 29.816406 4.960938 C 28.585938 4.46875 29.042969 4.820312 28.128906 4.503906 L 28.058594 4.292969 C 26.652344 4.011719 26.125 3.449219 24.789062 3.167969 C 24.683594 3.238281 24.226562 3.097656 23.734375 2.957031 C 23.769531 2.746094 22.257812 2.605469 22.363281 2.429688 L 22.328125 2.429688 C 22.046875 2.359375 21.835938 2.324219 21.449219 2.21875 C 21.167969 2.183594 19.65625 2.042969 18.144531 2.007812 C 17.40625 2.007812 16.632812 2.007812 16.035156 2.042969 C 15.71875 2.042969 15.472656 2.078125 15.261719 2.078125 C 15.050781 2.113281 14.910156 2.113281 14.839844 2.113281 L 14.558594 2.078125 C 13.75 2.042969 13.398438 2.21875 13.890625 2.253906 L 12.90625 2.253906 L 13.011719 2.21875 C 12.695312 2.21875 12.34375 2.21875 12.027344 2.253906 C 11.851562 2.253906 11.640625 2.183594 11.886719 2.042969 C 11.605469 2.113281 11.324219 2.148438 11.007812 2.183594 C 10.691406 2.21875 10.410156 2.289062 10.128906 2.289062 C 11.710938 2.183594 13.679688 2.289062 15.261719 2.570312 C 14.945312 2.605469 14.453125 2.570312 13.996094 2.535156 C 13.539062 2.5 13.046875 2.535156 12.695312 2.535156 C 12.308594 2.535156 11.640625 2.570312 10.902344 2.570312 C 10.164062 2.605469 9.355469 2.675781 8.652344 2.78125 C 8.335938 2.851562 8.195312 3.097656 7.492188 3.203125 C 7.105469 3.167969 6.71875 3.414062 6.121094 3.519531 C 6.261719 3.449219 6.4375 3.378906 6.578125 3.308594 C 6.753906 3.238281 6.894531 3.203125 7.070312 3.167969 C 7.386719 3.0625 7.738281 2.992188 8.054688 2.921875 C 7.914062 2.78125 6.402344 3.238281 5.875 3.414062 C 5.769531 3.484375 5.382812 3.625 4.925781 3.800781 C 4.503906 3.976562 4.011719 4.1875 3.625 4.398438 C 3.871094 4.046875 2.957031 4.644531 2.464844 4.820312 C 1.972656 5.136719 1.691406 5.417969 1.9375 5.3125 C 1.9375 5.382812 2.042969 5.347656 2.21875 5.242188 C 2.289062 5.207031 2.394531 5.136719 2.5 5.066406 C 2.605469 4.996094 2.710938 4.960938 2.851562 4.890625 C 3.308594 4.679688 3.695312 4.503906 3.378906 4.785156 C 3.273438 4.785156 2.957031 4.960938 2.640625 5.136719 C 2.324219 5.347656 1.972656 5.59375 1.726562 5.804688 C 1.796875 5.910156 2.113281 5.628906 1.867188 5.945312 C 1.726562 6.050781 1.585938 6.121094 1.445312 6.261719 C 1.339844 6.367188 1.199219 6.472656 1.09375 6.613281 C 0.882812 6.824219 0.671875 7 0.496094 7.105469 C 0.566406 7 0.8125 6.824219 0.953125 6.71875 C 0.636719 7 1.375 6.050781 2.289062 5.277344 C 3.167969 4.503906 4.152344 3.835938 3.660156 4.117188 C 3.660156 4.082031 3.449219 4.257812 3.097656 4.539062 C 2.921875 4.679688 2.675781 4.855469 2.464844 5.03125 C 2.253906 5.242188 2.007812 5.453125 1.796875 5.628906 C 1.339844 6.015625 0.917969 6.507812 0.636719 6.789062 C 0.355469 7.105469 0.214844 7.246094 0.320312 7.175781 C 0.742188 6.859375 0.179688 7.5625 0.601562 7.246094 L 0.988281 6.753906 C 1.304688 6.542969 1.515625 6.402344 1.65625 6.367188 C 1.796875 6.332031 1.867188 6.402344 1.761719 6.472656 C 1.515625 6.648438 1.550781 6.578125 1.691406 6.367188 C 1.867188 6.15625 2.183594 5.839844 2.5 5.488281 C 3.167969 4.855469 3.941406 4.257812 3.484375 4.574219 C 3.625 4.503906 3.765625 4.46875 3.90625 4.398438 C 3.519531 4.679688 2.5 5.3125 2.078125 5.523438 C 2.113281 5.558594 2.007812 5.699219 1.832031 5.839844 C 1.65625 5.980469 1.445312 6.15625 1.269531 6.332031 L 1.128906 6.4375 C 0.777344 6.824219 0.179688 7.28125 0.53125 7.175781 C 1.691406 6.15625 1.480469 6.71875 1.269531 7.246094 C 1.058594 7.773438 0.917969 8.300781 1.972656 7.421875 C 0.953125 8.019531 2.078125 6.929688 3.097656 6.261719 C 3.238281 6.261719 3.765625 6.085938 4.574219 5.699219 C 5.242188 5.382812 4.925781 5.417969 5.03125 5.3125 C 5.242188 5.242188 5.523438 5.136719 5.734375 5.066406 C 5.980469 5.03125 6.15625 4.996094 6.121094 5.066406 C 6.613281 4.714844 7.035156 4.820312 7.667969 4.609375 C 8.230469 4.363281 7.597656 4.574219 8.019531 4.363281 C 8.546875 4.328125 9.074219 4.257812 9.601562 4.152344 C 10.128906 4.082031 10.621094 4.011719 11.007812 3.976562 C 11.289062 4.046875 12.167969 4.1875 11.570312 4.433594 C 10.199219 4.539062 12.0625 4.046875 10.65625 4.292969 C 11.289062 4.46875 9.390625 4.539062 9.214844 4.820312 C 9.671875 4.820312 10.585938 4.679688 11.324219 4.574219 L 11.183594 4.539062 C 11.5 4.503906 12.027344 4.433594 12.519531 4.398438 C 13.046875 4.398438 13.574219 4.398438 13.925781 4.46875 C 13.75 4.574219 14.066406 4.644531 13.574219 4.679688 C 13.890625 4.679688 14.207031 4.679688 14.488281 4.714844 C 14.59375 4.679688 14.734375 4.644531 14.453125 4.644531 C 14.875 4.574219 15.332031 4.644531 15.648438 4.714844 C 15.683594 4.75 16 4.75 16.457031 4.75 C 16.914062 4.75 17.546875 4.785156 18.144531 4.785156 C 19.339844 4.855469 20.535156 4.960938 20.464844 4.996094 C 21.132812 5.136719 21.238281 5.3125 21.90625 5.382812 C 21.941406 5.382812 21.554688 5.277344 20.957031 5.171875 C 20.675781 5.066406 20.324219 5.03125 19.972656 4.960938 C 19.621094 4.925781 19.234375 4.855469 18.847656 4.820312 C 17.335938 4.679688 15.964844 4.679688 16.386719 4.679688 C 16.527344 4.714844 17.054688 4.75 17.828125 4.785156 C 18.566406 4.855469 19.515625 4.925781 20.464844 5.066406 C 22.328125 5.347656 24.15625 5.769531 24.332031 5.910156 C 24.824219 6.050781 25.386719 6.191406 25.316406 6.050781 C 26.125 6.332031 25.035156 6.15625 25.5625 6.4375 C 25.597656 6.4375 25.527344 6.367188 25.703125 6.4375 L 26.230469 6.71875 C 27.53125 6.964844 29.289062 7.773438 30.695312 7.984375 C 30.273438 7.949219 29.78125 8.019531 28.902344 7.808594 L 28.761719 7.808594 C 28.621094 7.808594 27.917969 7.597656 27.917969 7.703125 C 28.691406 8.019531 29.394531 8.230469 30.273438 8.40625 C 30.414062 8.476562 30.589844 8.582031 30.695312 8.617188 L 30.695312 8.582031 C 30.941406 8.722656 30.90625 8.722656 30.800781 8.722656 L 30.730469 8.722656 C 31.152344 9.179688 33.964844 9.566406 35.441406 10.09375 C 35.898438 10.164062 35.511719 10.058594 36.074219 10.164062 C 37.585938 10.65625 38.640625 11.007812 40.328125 11.324219 C 40.890625 11.253906 40.925781 11.21875 40.292969 11.007812 L 41.558594 11.21875 C 40.960938 11.289062 41.523438 11.5 42.121094 11.605469 C 42.683594 11.746094 43.28125 11.886719 42.613281 11.992188 C 43 12.132812 43.773438 12.167969 44.511719 12.132812 C 44.582031 12.0625 44.6875 11.921875 45.601562 11.921875 C 46.234375 11.992188 46.480469 11.992188 46.691406 11.992188 C 46.902344 11.992188 47.078125 11.992188 47.605469 12.027344 C 47.851562 12.132812 47.464844 12.203125 47.535156 12.273438 C 49.152344 11.992188 48.976562 12.414062 50.488281 12.167969 C 50.980469 12.097656 51.648438 11.957031 52.246094 11.816406 C 52.84375 11.675781 53.300781 11.535156 53.300781 11.429688 C 54.53125 11.21875 54.53125 11.324219 54.460938 11.535156 Z M 54.460938 11.535156 " fill-opacity="1" fill-rule="nonzero"/></g></g></g></g><g clip-path="url(#63ebe05ca0)"><path fill="#052844" d="M 120.28125 309.949219 L 121.3125 309.734375 C 118.003906 310.519531 114.410156 311.085938 110.78125 310.980469 C 114.730469 311.335938 119.035156 310.910156 122.878906 309.949219 C 126.71875 308.988281 130.132812 307.636719 132.660156 306.144531 C 133.085938 306.425781 135.007812 306.105469 136.820312 305.714844 C 138.636719 305.359375 140.378906 304.96875 140.414062 304.863281 C 141.765625 304.398438 143.191406 303.972656 144.613281 303.6875 C 143.617188 303.902344 142.65625 304.113281 141.695312 304.398438 C 142.65625 304.113281 143.617188 303.867188 144.613281 303.6875 C 146.855469 303.191406 149.203125 302.976562 151.515625 303.082031 C 151.796875 303.082031 152.082031 303.117188 152.402344 303.15625 C 152.6875 303.191406 152.972656 303.226562 153.292969 303.261719 C 153.578125 303.296875 153.863281 303.367188 154.144531 303.402344 C 154.429688 303.4375 154.714844 303.511719 155 303.582031 C 156.136719 303.832031 157.277344 304.1875 158.449219 304.648438 C 160.726562 305.574219 163.039062 306.820312 165.53125 307.992188 C 166.773438 308.597656 168.054688 309.167969 169.441406 309.628906 C 170.117188 309.878906 170.832031 310.089844 171.542969 310.269531 L 172.609375 310.554688 C 172.964844 310.660156 173.320312 310.695312 173.710938 310.765625 C 175.3125 311.085938 177.695312 311.265625 180.328125 311.121094 C 182.960938 311.015625 185.914062 310.554688 188.722656 309.949219 C 191.570312 309.34375 194.308594 308.632812 196.726562 308.027344 C 199.148438 307.421875 201.210938 306.960938 202.703125 306.710938 L 203.984375 306.5 C 204.410156 306.425781 204.839844 306.355469 205.265625 306.285156 C 203.84375 306.460938 203.84375 306.5 202.417969 306.710938 C 204.164062 306.214844 205.871094 305.824219 207.507812 305.503906 C 209.179688 305.183594 210.777344 304.898438 212.378906 304.753906 C 211.8125 304.683594 211.703125 304.578125 210.351562 304.578125 C 210.886719 304.542969 211.457031 304.507812 211.988281 304.507812 C 212.734375 304.292969 213.980469 304.152344 215.226562 304.042969 C 216.472656 303.9375 217.75 303.9375 218.570312 303.867188 C 218.214844 304.042969 219.496094 304.078125 220.632812 304.152344 L 220.171875 304.007812 C 222.339844 304.113281 224.652344 304.292969 226.894531 304.578125 C 229.136719 304.863281 231.339844 305.21875 233.226562 305.644531 C 233.757812 305.75 234.152344 305.929688 234.363281 306.035156 C 235.574219 306.285156 236.820312 306.535156 238.027344 306.78125 C 237.707031 306.925781 241.015625 307.742188 239.238281 307.421875 C 242.046875 307.851562 244.789062 308.738281 247.5625 309.023438 C 249.945312 309.523438 252.4375 309.914062 254.996094 310.054688 C 257.523438 310.234375 260.15625 310.164062 262.714844 309.734375 C 267.875 308.953125 272.640625 307.101562 277.335938 305.574219 L 277.089844 305.574219 C 280.359375 304.507812 283.242188 303.367188 287.476562 302.90625 C 288.933594 302.550781 290.75 302.230469 292.347656 301.980469 C 293.949219 301.730469 295.300781 301.519531 295.90625 301.304688 C 296.796875 301.269531 297.542969 301.234375 298.21875 301.199219 C 298.894531 301.164062 299.5 301.125 300.140625 301.125 C 301.347656 301.089844 302.59375 301.054688 304.300781 301.125 C 303.875 300.984375 304.691406 300.984375 305.441406 300.984375 C 306.1875 300.984375 306.828125 301.019531 305.972656 300.84375 C 304.835938 300.558594 304.230469 300.488281 303.660156 300.449219 C 303.09375 300.414062 302.558594 300.378906 301.597656 300.203125 L 301.667969 300.273438 C 297.082031 299.882812 292.457031 299.917969 287.832031 300.414062 C 285.519531 300.664062 283.242188 301.019531 280.929688 301.484375 C 278.652344 301.945312 276.375 302.550781 274.171875 303.191406 C 271.253906 304.152344 268.300781 305.109375 265.277344 305.75 C 263.785156 306.070312 262.289062 306.320312 260.796875 306.425781 C 259.300781 306.535156 257.808594 306.570312 256.3125 306.5 C 249.875 306.285156 242.796875 304.292969 237.03125 303.117188 C 235.644531 302.835938 234.683594 302.441406 233.546875 302.085938 C 230.84375 301.554688 227.746094 301.054688 224.546875 300.769531 C 221.34375 300.488281 218.035156 300.414062 214.941406 300.59375 L 215.261719 300.59375 C 211.953125 300.734375 209.5 300.734375 206.296875 301.234375 C 206.332031 301.304688 205.835938 301.375 205.585938 301.445312 C 205.441406 301.410156 204.199219 301.589844 202.417969 302.015625 C 200.640625 302.40625 198.363281 303.082031 196.085938 303.757812 C 193.847656 304.433594 191.570312 305.148438 189.828125 305.644531 C 188.082031 306.144531 186.800781 306.425781 186.519531 306.460938 L 185.558594 306.675781 C 183.957031 306.960938 182.355469 307.101562 180.753906 307.210938 L 179.582031 307.210938 C 179.191406 307.210938 178.796875 307.210938 178.40625 307.175781 C 178.015625 307.136719 177.625 307.136719 177.234375 307.101562 C 176.84375 307.066406 176.488281 306.996094 176.09375 306.960938 C 175.347656 306.890625 174.601562 306.710938 173.890625 306.570312 C 173.710938 306.535156 173.535156 306.5 173.355469 306.425781 C 173.179688 306.390625 173 306.320312 172.820312 306.285156 C 172.464844 306.179688 172.109375 306.105469 171.789062 306 C 170.4375 305.574219 169.15625 305.039062 167.878906 304.507812 C 166.738281 304.152344 165.421875 303.6875 164.425781 303.367188 C 163.574219 302.835938 163.289062 302.941406 162.1875 302.40625 C 160.871094 301.484375 159.695312 300.914062 159.054688 300.699219 C 158.414062 300.488281 158.308594 300.59375 159.089844 300.949219 L 158.128906 300.628906 C 157.808594 300.523438 157.488281 300.449219 157.167969 300.34375 C 156.53125 300.167969 155.855469 300.023438 155.214844 299.882812 C 154.574219 299.773438 153.933594 299.632812 153.292969 299.5625 C 152.972656 299.527344 152.652344 299.492188 152.367188 299.453125 C 152.046875 299.417969 151.761719 299.417969 151.441406 299.382812 C 151.15625 299.382812 150.875 299.347656 150.625 299.382812 L 149.769531 299.492188 C 149.238281 299.492188 148.667969 299.5625 148.132812 299.597656 C 147.671875 299.632812 147.316406 299.667969 146.996094 299.632812 C 146.675781 299.632812 146.425781 299.597656 146.175781 299.527344 C 145.003906 299.703125 144.578125 299.738281 144.148438 299.773438 C 143.722656 299.808594 143.261719 299.808594 142.050781 299.988281 C 141.730469 299.953125 140.203125 300.308594 138.742188 300.804688 C 137.25 301.269531 135.789062 301.839844 135.46875 301.875 L 135.863281 301.730469 C 133.15625 302.480469 131.273438 302.65625 128.675781 303.4375 C 125.082031 304.46875 121.347656 305.609375 117.71875 306.320312 C 115.90625 306.675781 114.089844 306.890625 112.3125 306.996094 C 110.570312 307.066406 108.859375 306.996094 107.261719 306.78125 C 107.226562 306.890625 107.582031 306.925781 107.9375 306.960938 C 108.328125 306.996094 108.71875 307.03125 108.71875 307.175781 C 104.839844 306.855469 101.070312 305.464844 97.15625 304.152344 C 96.480469 303.867188 95.628906 303.472656 95.34375 303.296875 C 94.097656 302.796875 94.558594 303.15625 93.636719 302.835938 L 93.5625 302.621094 C 92.140625 302.335938 91.609375 301.765625 90.257812 301.484375 C 90.148438 301.554688 89.6875 301.410156 89.1875 301.269531 C 89.222656 301.054688 87.695312 300.914062 87.800781 300.734375 L 87.765625 300.734375 C 87.480469 300.664062 87.269531 300.628906 86.875 300.523438 C 86.59375 300.488281 85.0625 300.34375 83.53125 300.308594 C 82.785156 300.308594 82.003906 300.308594 81.398438 300.34375 C 81.078125 300.34375 80.828125 300.378906 80.617188 300.378906 C 80.402344 300.414062 80.261719 300.414062 80.1875 300.414062 L 79.902344 300.378906 C 79.085938 300.34375 78.730469 300.523438 79.226562 300.558594 L 78.230469 300.558594 L 78.339844 300.523438 C 78.019531 300.523438 77.664062 300.523438 77.34375 300.558594 C 77.164062 300.558594 76.953125 300.488281 77.199219 300.34375 C 76.914062 300.414062 76.632812 300.449219 76.3125 300.488281 C 75.992188 300.523438 75.707031 300.59375 75.421875 300.59375 C 77.023438 300.488281 79.015625 300.59375 80.617188 300.878906 C 80.296875 300.914062 79.796875 300.878906 79.335938 300.84375 C 78.871094 300.804688 78.375 300.84375 78.019531 300.84375 C 77.628906 300.84375 76.953125 300.878906 76.203125 300.878906 C 75.457031 300.914062 74.640625 300.984375 73.929688 301.089844 C 73.609375 301.164062 73.464844 301.410156 72.753906 301.519531 C 72.363281 301.484375 71.972656 301.730469 71.367188 301.839844 C 71.507812 301.765625 71.6875 301.695312 71.828125 301.625 C 72.007812 301.554688 72.148438 301.519531 72.328125 301.484375 C 72.648438 301.375 73.003906 301.304688 73.324219 301.234375 C 73.179688 301.089844 71.652344 301.554688 71.117188 301.730469 C 71.011719 301.800781 70.621094 301.945312 70.15625 302.121094 C 69.730469 302.300781 69.230469 302.515625 68.839844 302.726562 C 69.089844 302.371094 68.164062 302.976562 67.667969 303.15625 C 67.167969 303.472656 66.882812 303.757812 67.132812 303.652344 C 67.132812 303.722656 67.238281 303.6875 67.417969 303.582031 C 67.488281 303.546875 67.597656 303.472656 67.703125 303.402344 C 67.808594 303.332031 67.914062 303.296875 68.058594 303.226562 C 68.519531 303.011719 68.910156 302.835938 68.59375 303.117188 C 68.484375 303.117188 68.164062 303.296875 67.84375 303.472656 C 67.523438 303.6875 67.167969 303.9375 66.917969 304.152344 C 66.992188 304.257812 67.3125 303.972656 67.0625 304.292969 C 66.917969 304.398438 66.777344 304.46875 66.636719 304.613281 C 66.527344 304.71875 66.386719 304.828125 66.28125 304.96875 C 66.066406 305.183594 65.851562 305.359375 65.675781 305.464844 C 65.746094 305.359375 65.996094 305.183594 66.136719 305.074219 C 65.816406 305.359375 66.5625 304.398438 67.488281 303.617188 C 68.378906 302.835938 69.375 302.160156 68.875 302.441406 C 68.875 302.40625 68.664062 302.585938 68.308594 302.871094 C 68.128906 303.011719 67.878906 303.191406 67.667969 303.367188 C 67.453125 303.582031 67.203125 303.792969 66.992188 303.972656 C 66.527344 304.363281 66.101562 304.863281 65.816406 305.148438 C 65.53125 305.464844 65.390625 305.609375 65.496094 305.539062 C 65.921875 305.21875 65.355469 305.929688 65.78125 305.609375 L 66.171875 305.109375 C 66.492188 304.898438 66.707031 304.753906 66.847656 304.71875 C 66.992188 304.683594 67.0625 304.753906 66.957031 304.828125 C 66.707031 305.003906 66.742188 304.933594 66.882812 304.71875 C 67.0625 304.507812 67.382812 304.1875 67.703125 303.832031 C 68.378906 303.191406 69.160156 302.585938 68.699219 302.90625 C 68.839844 302.835938 68.984375 302.796875 69.125 302.726562 C 68.734375 303.011719 67.703125 303.652344 67.277344 303.867188 C 67.3125 303.902344 67.203125 304.042969 67.027344 304.1875 C 66.847656 304.328125 66.636719 304.507812 66.457031 304.683594 L 66.316406 304.789062 C 65.960938 305.183594 65.355469 305.644531 65.710938 305.539062 C 66.882812 304.507812 66.671875 305.074219 66.457031 305.609375 C 66.242188 306.144531 66.101562 306.675781 67.167969 305.785156 C 66.136719 306.390625 67.277344 305.289062 68.308594 304.613281 C 68.449219 304.613281 68.984375 304.433594 69.800781 304.042969 C 70.476562 303.722656 70.15625 303.757812 70.265625 303.652344 C 70.476562 303.582031 70.761719 303.472656 70.976562 303.402344 C 71.222656 303.367188 71.402344 303.332031 71.367188 303.402344 C 71.863281 303.046875 72.292969 303.15625 72.933594 302.941406 C 73.5 302.691406 72.859375 302.90625 73.289062 302.691406 C 73.820312 302.65625 74.355469 302.585938 74.886719 302.480469 C 75.421875 302.40625 75.921875 302.335938 76.3125 302.300781 C 76.597656 302.371094 77.484375 302.515625 76.878906 302.761719 C 75.492188 302.871094 77.378906 302.371094 75.957031 302.621094 C 76.597656 302.796875 74.675781 302.871094 74.496094 303.15625 C 74.960938 303.15625 75.882812 303.011719 76.632812 302.90625 L 76.488281 302.871094 C 76.808594 302.835938 77.34375 302.761719 77.839844 302.726562 C 78.375 302.726562 78.90625 302.726562 79.265625 302.796875 C 79.085938 302.90625 79.40625 302.976562 78.90625 303.011719 C 79.226562 303.011719 79.546875 303.011719 79.832031 303.046875 C 79.941406 303.011719 80.082031 302.976562 79.796875 302.976562 C 80.222656 302.90625 80.6875 302.976562 81.007812 303.046875 C 81.042969 303.082031 81.363281 303.082031 81.824219 303.082031 C 82.289062 303.082031 82.929688 303.117188 83.53125 303.117188 C 84.742188 303.191406 85.953125 303.296875 85.878906 303.332031 C 86.554688 303.472656 86.664062 303.652344 87.339844 303.722656 C 87.375 303.722656 86.984375 303.617188 86.378906 303.511719 C 86.09375 303.402344 85.738281 303.367188 85.382812 303.296875 C 85.027344 303.261719 84.636719 303.191406 84.246094 303.15625 C 82.714844 303.011719 81.328125 303.011719 81.753906 303.011719 C 81.894531 303.046875 82.429688 303.082031 83.210938 303.117188 C 83.960938 303.191406 84.921875 303.261719 85.878906 303.402344 C 87.765625 303.6875 89.617188 304.113281 89.792969 304.257812 C 90.292969 304.398438 90.859375 304.542969 90.789062 304.398438 C 91.609375 304.683594 90.503906 304.507812 91.039062 304.789062 C 91.074219 304.789062 91.003906 304.71875 91.179688 304.789062 L 91.714844 305.074219 C 93.03125 305.324219 94.808594 306.144531 96.234375 306.355469 C 95.804688 306.320312 95.308594 306.390625 94.417969 306.179688 L 94.277344 306.179688 C 94.132812 306.179688 93.421875 305.964844 93.421875 306.070312 C 94.203125 306.390625 94.917969 306.605469 95.804688 306.78125 C 95.949219 306.855469 96.125 306.960938 96.234375 306.996094 L 96.234375 306.960938 C 96.480469 307.101562 96.445312 307.101562 96.339844 307.101562 L 96.269531 307.101562 C 96.695312 307.566406 99.539062 307.957031 101.035156 308.492188 C 101.496094 308.5625 101.105469 308.453125 101.675781 308.5625 C 103.203125 309.058594 104.273438 309.414062 105.980469 309.734375 C 106.546875 309.664062 106.585938 309.628906 105.945312 309.414062 L 107.226562 309.628906 C 106.621094 309.699219 107.1875 309.914062 107.792969 310.019531 C 108.363281 310.164062 108.96875 310.304688 108.292969 310.410156 C 108.683594 310.554688 109.464844 310.589844 110.210938 310.554688 C 110.285156 310.484375 110.390625 310.339844 111.316406 310.339844 C 111.957031 310.410156 112.203125 310.410156 112.417969 310.410156 C 112.632812 310.410156 112.808594 310.410156 113.34375 310.445312 C 113.59375 310.554688 113.199219 310.625 113.273438 310.695312 C 114.910156 310.410156 114.730469 310.839844 116.261719 310.589844 C 116.757812 310.519531 117.433594 310.375 118.039062 310.234375 C 118.644531 310.089844 119.105469 309.949219 119.105469 309.84375 C 120.351562 309.628906 120.351562 309.734375 120.28125 309.949219 Z M 120.28125 309.949219 " fill-opacity="1" fill-rule="nonzero"/></g></svg>